<mxfile host="app.diagrams.net" modified="2020-12-29T13:39:13.238Z" agent="5.0 (Windows NT 10.0; Win64; x64) AppleWebKit/537.36 (KHTML, like Gecko) Chrome/87.0.4280.88 Safari/537.36" etag="sVOk2U9gUdPSCcDDLRrF" version="14.1.3" type="github">
  <diagram id="C5RBs43oDa-KdzZeNtuy" name="Page-1">
    <mxGraphModel dx="4063" dy="3346" grid="1" gridSize="10" guides="1" tooltips="1" connect="1" arrows="1" fold="1" page="1" pageScale="1" pageWidth="827" pageHeight="1169" math="0" shadow="0">
      <root>
        <mxCell id="WIyWlLk6GJQsqaUBKTNV-0" />
        <mxCell id="WIyWlLk6GJQsqaUBKTNV-1" parent="WIyWlLk6GJQsqaUBKTNV-0" />
        <mxCell id="WIyWlLk6GJQsqaUBKTNV-2" value="" style="rounded=0;html=1;jettySize=auto;orthogonalLoop=1;fontSize=11;endArrow=block;endFill=0;endSize=8;strokeWidth=1;shadow=0;labelBackgroundColor=none;edgeStyle=orthogonalEdgeStyle;" parent="WIyWlLk6GJQsqaUBKTNV-1" source="WIyWlLk6GJQsqaUBKTNV-3" target="WIyWlLk6GJQsqaUBKTNV-6" edge="1">
          <mxGeometry relative="1" as="geometry" />
        </mxCell>
        <mxCell id="WIyWlLk6GJQsqaUBKTNV-3" value="시작" style="rounded=1;whiteSpace=wrap;html=1;fontSize=12;glass=0;strokeWidth=1;shadow=0;fillColor=#d5e8d4;strokeColor=#82b366;" parent="WIyWlLk6GJQsqaUBKTNV-1" vertex="1">
          <mxGeometry x="130" y="-830" width="120" height="40" as="geometry" />
        </mxCell>
        <mxCell id="WIyWlLk6GJQsqaUBKTNV-4" value="Yes" style="rounded=0;html=1;jettySize=auto;orthogonalLoop=1;fontSize=11;endArrow=block;endFill=0;endSize=8;strokeWidth=1;shadow=0;labelBackgroundColor=none;edgeStyle=orthogonalEdgeStyle;" parent="WIyWlLk6GJQsqaUBKTNV-1" source="WIyWlLk6GJQsqaUBKTNV-6" target="WIyWlLk6GJQsqaUBKTNV-10" edge="1">
          <mxGeometry y="20" relative="1" as="geometry">
            <mxPoint as="offset" />
          </mxGeometry>
        </mxCell>
        <mxCell id="WIyWlLk6GJQsqaUBKTNV-6" value="&lt;div&gt;int num = int.Parse(Console.ReadLine());&lt;/div&gt;&lt;div&gt;&amp;nbsp; &amp;nbsp; &amp;nbsp; &amp;nbsp; &amp;nbsp; &amp;nbsp; int[] arr1 = new int[num];&lt;/div&gt;&lt;div&gt;&lt;br&gt;&lt;/div&gt;&lt;div&gt;num(입력받은 값)으로 &lt;br&gt;배열의 크기 지정&lt;/div&gt;" style="rounded=1;whiteSpace=wrap;html=1;fontSize=12;glass=0;strokeWidth=1;shadow=0;" parent="WIyWlLk6GJQsqaUBKTNV-1" vertex="1">
          <mxGeometry x="70" y="-740" width="240" height="100" as="geometry" />
        </mxCell>
        <mxCell id="-ZwUpcQ8FISl90wlWEQS-10" value="" style="edgeStyle=orthogonalEdgeStyle;rounded=0;orthogonalLoop=1;jettySize=auto;html=1;endArrow=block;endFill=0;" parent="WIyWlLk6GJQsqaUBKTNV-1" source="WIyWlLk6GJQsqaUBKTNV-10" target="-ZwUpcQ8FISl90wlWEQS-9" edge="1">
          <mxGeometry relative="1" as="geometry" />
        </mxCell>
        <mxCell id="-ZwUpcQ8FISl90wlWEQS-13" value="" style="edgeStyle=orthogonalEdgeStyle;rounded=0;orthogonalLoop=1;jettySize=auto;html=1;endArrow=block;endFill=0;" parent="WIyWlLk6GJQsqaUBKTNV-1" source="WIyWlLk6GJQsqaUBKTNV-10" target="WIyWlLk6GJQsqaUBKTNV-11" edge="1">
          <mxGeometry relative="1" as="geometry" />
        </mxCell>
        <mxCell id="WIyWlLk6GJQsqaUBKTNV-10" value="arr1.length &amp;lt; num" style="rhombus;whiteSpace=wrap;html=1;shadow=0;fontFamily=Helvetica;fontSize=12;align=center;strokeWidth=1;spacing=6;spacingTop=-4;" parent="WIyWlLk6GJQsqaUBKTNV-1" vertex="1">
          <mxGeometry x="120" y="-580" width="140" height="80" as="geometry" />
        </mxCell>
        <mxCell id="WIyWlLk6GJQsqaUBKTNV-11" value="arr1[i] = 값입력 및 저장&lt;br&gt;i++;&lt;br&gt;&lt;br&gt;ex) num = 3&lt;br&gt;i = 0, 1, 2까지 값 입력받음" style="rounded=1;whiteSpace=wrap;html=1;fontSize=12;glass=0;strokeWidth=1;shadow=0;" parent="WIyWlLk6GJQsqaUBKTNV-1" vertex="1">
          <mxGeometry x="100" y="-430" width="180" height="90" as="geometry" />
        </mxCell>
        <mxCell id="-ZwUpcQ8FISl90wlWEQS-1" value="" style="shape=image;verticalLabelPosition=bottom;labelBackgroundColor=#ffffff;verticalAlign=top;aspect=fixed;imageAspect=0;image=data:image/png,iVBORw0KGgoAAAANSUhEUgAAAwEAAAMxCAYAAACzZb+4AAAgAElEQVR4Aeyd3ZEkOXJu55EK7PMIQAFWENpqwve9GtAoA62eqQQFoEZ9zWf59fp4uwMegchERsUpsxgA/o+D6C54d3bNbz+Sr6+vr0T6q+h///d/fxW+UfL0/Bnq3/7fb3+I4ziyzXTIIAABCEAAAhCAAAS+L4F/3BjD/mgCApBiubsJKcr6YQ2AnpFNpUMOAQhAAAIQgAAEIPC9CSw1Ad8bzX13x98C3PfsqBwCEIAABCAAAQi8gwBNwDsovzGHGgCljGuTZzLZM0IAAhCAAAQgAAEIfH8CNAHf/4x/2SFNwC9IEEAAAhCAAAQgAIFHEVhqAnZ/Jv7p+c+8qTQAZ6jhAwEIQAACEIAABL4XAZqAhfPc3YScKZ0m4Aw1fCAAAQhAAAIQgMD3IkATsHCed2wCFraLKwQgAAEIQAACEIDANyGw1AR8EwZsAwIQgAAEIAABCEAAAo8iQBPwqONmsxCAAAQgAAEIQAACEPjxgyaAtwACEIAABCAAAQhAAAIPI7DUBOz+TPzT8z/sXWW7EIAABCAAAQhAAAIXEaAJWAC5uwlZKB1XCEAAAhCAAAQgAIEHE6AJWDh8moAFeLhCAAIQgAAEIAABCGwjsNQEbKuaxBCAAAQgAAEIQAACEIDAaQI0AafR4QgBCEAAAhCAAAQgAIF7EqAJuOe5UTUEIAABCEAAAhCAAAROE1hqAnZ/Jv7p+U+fOo4QgAAEIAABCEAAAo8mQBOwcPy7m5CF0nGFAAQgAAEIQAACEHgwAZqAhcOnCViAhysEIAABCEAAAhCAwDYCS03AtqpJDAEIQAACEIAABCAAAQicJkATcBodjhCAAAQgAAEIQAACELgnAZqAe54bVUMAAhCAAAQgAAEIQOA0gaUmYPdn4p+e//Sp4wgBCEAAAhCAAAQg8GgCNAELx7+7CVkoHVcIQAACEIAABCAAgQcToAlYOHyagAV4uEIAAhCAAAQgAAEIbCOw1ARsq5rEEIAABCAAAQhAAAIQgMBpAjQBp9HhCAEIQAACEIAABCAAgXsSoAm457lRNQQgAAEIQAACEIAABE4TWGoCdn8m/un5T586jhCAAAQgAAEIQAACjyZAE7Bw/LubkIXScYUABCAAAQhAAAIQeDABmoCFw6cJWICHKwQgAAEIQAACEIDANgJLTcC2qkkMAQh8PIH/+stfttf4CTVsh0ABEIAABCAAgYQATUACBREEvhOB335Lf5mf3mJ1sY7yuPYJTdd5vE937vP6ecf/aladnNhAAAIQgAAEdhBIbwdfX187aiHnAQL/+p///UPPAbe3mlp9V3/9+7/9/jNkNf9pMJl4/2g60kVbvz7id8TW5zgyry61/nLs5z72qrzytxwjnWrIbExWPZlfFiPmjzYVM8VnhAAEIAABCHwHAktNwO7PxD81f7xcx/WnvJivqMtfnKt5d//eP/qMdNHWr4/4HbH1Obrz0WXWX3z93GLbWk+WK9rLJsrjWnbK4dfZfOQ/iuH9/Nzn8HI/l82InWwYIQABCEAAAncmQBOwcHo7mpDqYl3JF7a37PqKmvzFuZovF/7jxw8f+0i8s35HcnRtRxdZf/H1cx97JDdd5/Hx/LyKfcSmiuHlfl7FzmxG7BSnYyNbRghAAAIQgMCnEaAJWDgRmoAxPJqAMZ9XamcXVH/x9XNf06q88rccpus8vp44r+J7uZ97fy/3c28zYzjT+1jMIQABCEAAAp9GYKkJ+LTNPKGe7sXa7PR4LvKXTutoM9Kb7UwvGx/Xzzv+3l5z/Ul7NZqd19lca8XQmMllH0f5aPR6yWzMYnq9n2e2klXx5T/TX3FBrS7HXXllpz2sjj6+zf2j2N5Gsu54BcNuLuwgAAEIQAAC7yZAE/Bu4ov5skt7DBlt/FqXb+8T9V5nc6/vrOUf/Sp5ZSd7P/pLssnjWjLJvW+cj2yO6Lytn8d8cZ3ZmizKj64tzxUX2OoC3ZVXdpHDmbVia/QxvMzPvU1nfgXDTh5sIAABCEAAAjsI0ATsoL6Qc3ZhrvSSa/QleJmfexvNK30m78osdmarnH7UhbgazVY675fNR3aVbiav9N38mb+X+bmPGeVXXGCrC7TJq8fXlPlXfjO5j2tzxdbo9V7m596mM7+CYScPNhCAAAQgAIEdBJaagB2fifeQnph/dlmu9JJr9ByjzNZRJvsj8sxWsbNROUajLrvVaL7SjeLM7KoYJq+eWcxYT5ZjJqtyR78rLrArF2jb61H/rn20G62jLp7BaH0Fw1F8dBCAAAQgAIGdBGgCFujvaEKyi7VtQXKNcVuSa/T6TKaYURfXipPJuzLF6I7xwjtbV3Gjn7erdJVcvjO97GzMbGeyTO9jan7FBXblAm11HPXv2ke70TrqxKczzhjO9J0c2EAAAhCAAAR2EaAJWCD/3ZsAofGXeT+X3sZM3pX5OJ15vAjP1lXM6OftKl0ll+9MLzsbM9uZLNP7mH6+ekkdXaBHOl9DNc/8M1n0r2y8vJrHWKN1h13HZpQDHQQgAAEIQGAngaUmYGfhT84dL9dH1tHWOHqZn4txlM3Wld9IHmOabXXJihfh2Vp54xj9vP6oTvYafaxqntl2ZB0by1nxq+qJcn+ZPqKLttl6FDuzPyLzsf38SIwOu47NkZzYQgACEIAABN5JgCbgnbQvzGWXZj1ZWOni5TquzTfKvG/UKZe3kSyOla9yzmJUl6x4CZ6tY11aRz/JNZpej2QaJddYyaNedjaaLn4dkSl25qO4FUPpR+PoAj3SjWJKt+qvONnoY/t5ZpvJOsw6NllsZBCAAAQgAIFPIUAT8CknQR0QeBGBV1xY7XLdeaotdXzPXOBjvqMxXsEq1sQaAhCAAAQg8AkElpqAHZ+J99Cent+zYA4BCEAAAhCAAAQgAIEuAZqALqnEbncTkpSECAIQgAAEIAABCEAAAlMCNAFTRLUBTUDNBg0EIAABCEAAAhCAwOcSWGoCPndbVAYBCEAAAhCAAAQgAAEIVARoAioyyCEAgSGBo//odhgsUV4R/4oYSWk/RSvxV3x/FrAweXX+1fir/gtoLnFdrX/Vf7aJs/G9n5/P8l2tX8296n/1fogHgR0EaAJ2UCfnowhc9RNnVr9prfrHQzsbz/yqx+dYia84nRgdG8Wz0dv7ebQxXaWPcbzvu+aj2q6oIYsvJqNRuSt/6UfjKL7XjWKMdJ0YWf0W0/v6ecxX+Ue7uK78ojyuFcfk2eP12VyyaqzyVfYz+Wq8Vf9Zfa/QX/W95BW1EfOeBJaagN2fiX9y/tnP2P+E13H0/wk4W5//mfjVvBvb+0efkS7ajtbVb9r+G5Cfj2J17bIY5tvxl91oVPxOPNn6sfLLcno/zTM7H7Oay9+P3lbymczr/bzyl42N8ZFPHKNdtY5+tq5sTe6/4trrqvkotnTy7cQf2VS6Sq683fFsnOgX18pfyaX3o2xt9I+36c4VK9pHeVxHe7/2ttXc28e5+Xi/qPfrVTvlqkblGuXxvrJ/5+hr83Orofqe8s76yPV9CNAELJzlriYkXq7jemFLl7q+oi5/Oa/m3U14/+gz0kXbaj36zdr/xu7nVSyz0VPZZPLoE9eZj5eZffU10lU+Jq/8ojyuuzG9n59H/0qXyb2smh/Z28g21lmtfR2VjZdH+7j2tt35KMZIp/gjm7M6i22+nUd1dMeqpkyeyao8mW0mq/y93PyqJ9r59Wjua6nmlX+09+vMZ6aXT8cu2vi1nyumjVEe1972VXOf08+Vb/S9RTaMEOgQoAnoUCpsdjQB1cW6khelv0X8ipr85byaX7E5H/tsvNFv1P43dj+vcpmNnspGctmN4nZsLN4shnIeGauYUR7XoxzetppHf2/ndZncy6q5xfC6IzG9bXde5ar8o31cV34j+SjGSGcxpdcoma31VLm9T2Yz02c+HVkVN5NnMsth8uyJ+Sv/aBfXlV+UxxpiHL+ubGPMzMfLNFc8rf04innULsbyaz9X3ExmukouvzgetR/5Z7FG31sUq2MjW8bnElhqAp6Lbd/Oq4t1Jd9X6Y8fr6jJX86r+RV79rHPxJv9Bux/Y/fzLJfp45PZvUI2qm2kG9VS+cU9VnZZbG9bzb2ft/Fym2c6L6vmla/k5hefmPvI2tfR8Yv2cd2JEW1GMUY6i+P1fq4cmUy66O/l0pn/7Il+s3VVUybPZKqtyhPrrexG8m7eyi7GjnZ+7efyM1kml96PmV0m8z6ad+yijV/7+SxmZiufbDxqH2N4fz/3drPvMTO9j8X8uQRoAm529t2Ltdnp8VuUv3RaR5uR3mxnetn4uH7e8ff2mutyXo1m53U211oxNGZy2cdRPhq9XjI/nv0N2H7DP/v4/FfNq29AFn+kG+Uf7c/7deNHuxjfx9Q8+khuY/TXWjZaa5Rco8n9V1xLV8mln41H/DPbTDbLGfWjGEd10T6uj+SOtleuY11xrVxH5fLTWPlLX42VX5THdRYvs/EyP8/8z8i6MTt20cav/XxUZ9duFOMVurPfY15RCzHvS4Am4GZnl13a4xaijV/r8u19ot7rbO71nbX8o18lr+xk70dd3KvRbHVB937ZXDFWdVmc1d+g7RtP9/H1d32inY+hudnYl0bJNXZiyPbMWOWNsaKdX/u596vkZpPpvKyax/hm5229vsojG/nORtnPxqyOTDaL4/Xy1+h1Nj8qjz6Vv/JkepOdeRSzO/oclU9Wn9l632yueJW/9NWYxZTM+4ziZ/by9X5+bnr5HR0VWzH8uprH3NEu03tZrDH629rbZ/qdstXvMTtrJ/fnEFhqAnZ8Jt6je2L+2YW50kuu0XP0Mj/3NppX+kzelVnszFY5/agLdzWarXTeL5uP7CpdV37Fb9Dxm1S2zvZVyY5+Q5O9xhi3kke7s+tO/MzGy/zc11HJzSbTeVk19/HfMfd1jPJVdpV8FMvr5K/R62yeyTNZ9NN6ZjvTK85dx1fvL4tvskxeMTxiW8WI8m7MmV3Uz9Zn64h+71pf8T3mXbWS53MJ0AQsnM2OJmR2Wa70kmv0244yW0eZ7I/IM1vFzkblGI26hFej+Uo3ijOzq2KYvHp8vqt+g7ZvXNXj83Xm8ZvgyCfaxrX5ZrJRzEpncfxT2UV5ld/L/dz7V3KzyXReVs1jfLObPd7n6NzXUfmObEa6Kp7k0TeuzS6Tyd+PZhcfr6/mo/gxXrWuYs/ko9zy7djI9ruNnb1XNpU8MhrZZbooi+sj8aPtjvVV32N21E7OzyFAE7BwFp/UBOjCrTFuS3KNXp/JTG/yqItrxcnkXZlidMd4QZ+tq7jRz9tVukrufW1+1W/Q9o2qemLO2Xr2TU/+lV2Ux7X83zGOcnudn/u6KrnZZDovq+Y+fmfu43Tsvc3M1/QdGx+zO6/iRnlcZ/Erm0ruY3RsvH2cr/h3fEc2pus8seYj66viZ/vIZL62md5sK5tKrvim1yOZHzP/rmwWx+tH8yzfyP6MbvY9ZqY/kxOf70dgqQn4fjg+f0fZxdqqllxj3InkGr0+k1X6yjaTd2U+V2ceL+KzdRUz+nm7SlfJva/mV/wmrG922ag8nVH+M9vZNy+v9/NZ3KhXPbOx8otyv/Z1+bm3sXmlq2qSv/fzc+kVu4rj5d7nyHyWtxOrijHynfl4vZ9nMVf0HV+zmT1ZXR3ZLK70nViVjcVY+Vr1V+4sTiaTvY2m7zzeR/OZn7fTXGNWVyYz+0quWCvjK2NbXZ3vLR2blT3i+z0I0ATc8Bzj5frIOtra9r3Mz4Umymbrym8kjzHNtvpNLF7EZ2vljWP08/qjusy+qt/nGc3tG4l/zNavu99ovJ38R3m7Oh+36zOyuyqej+PnMfdIF2392vv5eWXj5Z80r2q/qsZZ/BX9iu8V+5vltxwdm1Etu/1VW1ZHJpN9d++zGD5eNu/4j2xGuu4esrreIet8b+nYvKNWcnw2AZqAzz6fsjq7NOvJjKSLl+u4Nt8o875Rp1zeRrI4Vr7KOYtR/SYWL9yzdaxL6+gnuUbT65FMo+QaJY9jtYdol63tm1T1jWqkU6yRzUgn/9lY1Tbzi3pfi59Hu+7a1+Xnmf9MP/Op/Ct5Fs/LzO/M42N052drvDJ+VUMlt9wjnWrr2Mj2zNiJ37EZ5d7tb7WpBo2VLO7D20ed1h0b2Wbjq/1X42c1XyHrfE/p2FxRCzHuT2CpCdjxmXiP/On5PQvmn0vgzG/I3W9AmZ3JMnlGqGt3pa/q01jFHukzn0zW2V/HJottsspXtc/GKu475FXtV+Xuxs8YVTWsxDySp8oveRYrk8n+zNjdaxU7qyfKZr5eL9+ZzPSynY0+1tG5xV75WvVfyX3W98z3krO58HsGAZqAhXPe3YQslI4rBCAAAQhAAAIQgMCDCdAELBw+TcACPFwhAAEIQAACEIAABLYRWGoCtlVNYghAAAIQgAAEIAABCEDgNAGagNPocIQABCAAAQhAAAIQgMA9CdAE3PPcqBoCEIAABCAAAQhAAAKnCSw1Abs/E//0/KdPHUcIHCDAT6Q4AOuBpv798PMMxUyf+SCDAAQgAIHXEKAJWOC6uwn5LT293oZWfHsZPt9qhcFZX/1/Bfz4yaSqS9vs//HwCXsa/X8qztbnz03zs7GO+Fku+9LY8T1i24mX2WTvRybzvjO9t2UOAQhAAAKvI5BeI7++vloZd1+Cn57/7EXUDnfFt/Vy3MBohcFZ3+xilsk+AV91WYuX67j+hNqthlfUlZ1VJruagXJo7MQ/YtuJF22q98PsRrqOPuZiDQEIQAAC1xNYagKuL4eI7yJw9hL7rvo+Pc9ZftXFrJLv5JBd5KqLdSXfWf8raqrOqZJftX/F13hV3JU42fuheCOd2cz0XRvlY4QABCAAgeMEaAKOM/sWHmcvsd9i8xds4iy/6hJXyS8o9VSI6pJWXawr+ankFzm9oqbqnCr5RVv5+TGgV+fp1lu9H95/ZrOq97mYQwACEIDAcQI0AceZfYxHdhGVzEY9vmDJ4uhtRvPf//r3P9Q26vH20lcy+chOa28/mtvFoXpGfpnOGMQvyTwfb+Plfu5tRvPqEuflNvdPjCfbysbLZZvFkF3U2bq6oHUv1manx8eXv3RaR5uR3mxnetn4uH7e8ff2mo94ysZGsc3svS7TZ/6y0+hzVfPMVjIb9WT+0sk+2lTvh7eb2cz0PhZzCEAAAhC4nkByDfrxg38T0AO9+98k6MLqq9XFNMr82uaZb7TJ1tmlXRd6s/dz+XtZZy6/V48Zg1fzyy5VXubn2n+U2TrKKluTR9vZ2nyqC1p2aVdujdHGr3X5lq2NUe91Ud9Zy9/HleyIv/fRPLIzeZSN1lHX9ZefRtUzGjNbk0X50bXlrN4PX8/MZqb3sZhDAAIQgMD1BGgCFph+ahMQt1RddqNdZ+0v8bL3Mj+f6b2tn8vv1WOXS9euU68uYX6c+c0uad4/2nqdzSt9lFcXtOpirTyVXnKNsrfRy/zc22he6TN5VxZrUK5sNE7x8XaRo3SV3PRe5+fy9TaV3ttqntnOZJne51fs6v2Q3saZzUzvYzGHAAQgAIHrCdAELDClCfgHPH+B93Oh9bLOXH7ZaBeH6snsR7Lu5b5rN8olXXXJkt5Gs4lP1Pt1nMs3ym0tXTZ6++qCll2svV+ll1zjyMdsMjvzOSLPbBU7G31N1dy4xS8vy7hKJj+t/eh1mvvRbO1Lo9dV88x2JjN99fg81ftxxKYTw8djDgEIQAAC1xJYagKuLYVoRwl0L6ddu05+f4mXvZf5+Uzvbf1cfq8eu1y6dp16s0uY98v0URbX3t/PzS7axrW39/PqgpZdrM1Pco0+1kw/8om6uFaeTN6VKUZnrPhJrrGKlem9zM99DMk1el01z2xnskyfxa/eD287s1nV+1zMIQABCEDgOAGagOPMPsajeznt2nU2ll3WvczPFc/LOnP5vXrscunadeqdXbIyfZTF9Syvt/fzmV92Scsu1hZHco0xtuQavT6TVfrKNpN3ZT7XbF7xk1xjFSfTe5mf+xiSa/S6ap7ZzmSZvoqfvR+yHenMZqbv2igfIwQgAAEIHCdAE3Cc2cd4dC+nXbvOxvwlXvZe5uczvbf1c/m9euxy6drFerOLzuySlemjLK593kwXZXFt/pksq99s4+X6yDraxngzfbTP1iazryxWJc9ss/1nnCyml/v5H4U4/UgXbf1afhqlG42ZbUfWsbG8GR/VM9LNfLsxZMcIAQhAAALnCCw1Abs/E//0/N3LaWZnr4vJ9XRfn+yyHmW2jo/ie9tqLttXjxmXrsxqE7vM5x/6X395ZResuE+z8Y/pvZ+fR1/ZRv9o5/WjeNVlzi7NemJsW0sXL9dxLVsfw/tm9vKRnff188o3+ld22d4rVlE+4pvpRv5Wr/TRV2u/b83lo7WP05EpdhZH/hmjTCZ7G2f6ro2PyRwCEIAABI4T+PWW8oMfEdrFuLsJ6daJHQRWCHQubSvx8b03Af9++Hm2q5k+80EGAQhAAAKvIUATsMCVJmABHq4QgAAEIAABCEAAAtsILDUB26omMQQgAAEIQAACEIAABCBwmgBNwGl0OEIAAhCAAAQgAAEIQOCeBGgC7nluVA0BCEAAAhCAAAQgAIHTBJaagN2fiX96/tOnjiMEIAABCEAAAhCAwKMJ0AQsHP/uJmSh9Kmr/RQP/8jBy/hJH6LyvHHXe7Ar7/NOmB1DAAIQgMB3J0ATsHDCu5uA6ufTd7Y08+1c8Ds2nVpeZeP/PwSvyvHJcWdnPKp95vsJZ/8JNYwYooMABCAAAQh8MoGlJuCTN/aE2mYXtRGDmW/ngtWxGdXwKp3/H5W9Kscd4s7OeLSHme8nnP0n1DBiiA4CEIAABCDwyQRoAj75dF5Y2xWXvE+/hD39bwJWXp8r3o+V/B3f2fs303dyYAMBCEAAAhD4rgRoAr7ryU72dcUl79MvWTQBk5dgoL7i/RiEv0Q1e/9m+kuKIAgEIAABCEDgpgSWmoDdn4l/ev7soiaZjXr8uylZHL2NzTsXqI5NjGtr/3Gd7KIumbfzcWZ62cpO685oe6qenv8/rDzfzK/Smzz7quSZrWSZj2Q26pG9jZLF0dv8wy4vVMxnZ+fjycdk0U9rb6/52fdP/owQgAAEIACBJxNIv5N/fX21mDz9Er57/3ZRi1+6vHl5Zedt4rxzwerYxLj+widdlI0ufuYz01dxJX/l2OEfz8OvO/Nu/T6WfEwW5XFttplMMf6hT16+4mz8+fq54nlZZy6/M++ffBkhAAEIQAACTyeQfienCei9Fp/aBMTqswtdJvN+nQtWx8bHrOb+4mc2cR39ZnrZd+1kf8WYcfUyP/f5JNdoumru/UZz7y+7FZli2Fidfcbcy/xc8bysM5dfVYP0jBCAAAQgAAEI1ASWmoA6LJp3EFi50GW+vubOBatj42Nqbhe9+Ehno78IernmM/1RO9nbaHuqHm9XzTOuXmbz6vlH/n9Gjn7/1PRm3l8eKzLFsLE6++xsvMzPFc/LOnP5VTVIzwgBCEAAAhCAQE2AJqBm8/GalQtd5us33LlgdWx8TJv7S550URbXstM40x+1k/0VY8bVy/w8yyd9NWY+lUwxvH5F9uc46W8d0/PNzs7LOnPVMXv/ZnrFYYQABCAAAQg8kUD6nbz7caAnAvukPa9c6DJfv7fOBapj42Pa3F/ypIuyuJadxpn+qJ3srxgzrl7m51U+s5Gdn1f2lVwxvH5F9uc46W8d0/PNzs7LOnPVMXv/ZnrFYYQABCAAAQg8kUD6nbzbBOz+TPzT869c6DJf/wugc4Hq2PiYNveXPOmiLK5lp3GmP2on+yvGjGuUxbXl9TI/j7ojNcY4Vayunc9dnX12Nl7m54rnZZ25/KoaunrZMUIAAhCAAASeSIAmYOHUdzch3ctbZmfbNrmeiGF2wfqHf/r6xFC/rO2i5x8zqC5/vzgH20wvmY8p2avHjHUlE/uon627e4hxzK8rk63Z5z752WfMo8zW8dGevG01l+3oHR3p5M8IAQhAAAIQeDKB9Ds5fxPQeyV2NwG9Ks9Z2SXKP4riZVy0ROV54673YFfe550wO4YABCAAge9OYKkJ+O5w2B8EIAABCEAAAhCAAAS+IwGagO94quwJAhCAAAQgAAEIQAACAwI0AQM4qCAAAQhAAAIQgAAEIPAdCSw1Abs/E//0/N/xhWRPEIAABCAAAQhAAAKvJ0ATsMB4dxOyUDquEIAABCAAAQhAAAIPJkATsHD4n9IE/Pb/0mP8ubOZ/qchEwhAAAIQgAAEIACBRxBIb4/dHxH6CEI32OTskl/pK3lnyyu+in9FDMU6OlpuPUd9sYcABCAAAQhAAAJ3J0ATcPMTnF2kR/qRboZlxVexr4ihWEfGmDeuj8TCFgIQgAAEIAABCNyRAE3AHU/N1Ty7wM70LtSh6aviHirihHFVdybPZCdS4gIBCEAAAhCAAAQ+jsBSE7D7M/FPzz+7pM70K2/jK2Ov1DXzrerO5JlsFh89BCAAAQhAAAIQuAMBmoCFU9rdhMwuqWf08rFRj0ckWRy9TXduMY5+xbx+3YlV5azknZjYQAACEIAABCAAgbsRSG9h3X8YvPsS/OT8s0vrTG8vamZjsiiP68r36MufxT0a46h9lbOSH42PPQQgAAEIQAACELgDgaUm4A4b/K41zi6tM71xyWxWZEdZZ7mOxjhqX+Ws5EfjYw8BCEAAAhCAAATuQIAm4A6nFGqcXVhneoXL7FZkitsds1wzX/Opnpmv6auclbwTExsIQAACEIAABCBwNwI0AXc7scFFVlvpXmgzuxWZ8nfHLFfX96xdlTOTZ7KzefGDAAQgAAEIQAACn0RgqQl48mfy7RB37H92MZ3p/cuX2a7IfOzOPMvV8VuxqXJm8ky2khtfCEAAAhCAAAQg8CkEaAIWToImYAFe42801qLX3vFyH9fyrKiSy1EAACAASURBVOTSM0IAAhCAAAQgAIG7EqAJWDi5HU3AQrm/uGaX3K7Mgpmtnl+CNwRZrobbJSaqu6qhkl+SnCAQgAAEIAABCEBgM4GlJmBz7aSHAAQgAAEIQAACEIAABE4QoAk4AQ0XCEAAAhCAAAQgAAEI3JkATcCdT4/aIQABCEAAAhCAAAQgcILAUhOw+zPxT89/4rxxgQAEIAABCEAAAhCAwA+agIWXYHcTslA6rhCAAAQgAAEIQAACDyZAE7Bw+DQBC/BwhQAEIAABCEAAAhDYRmCpCdhWNYkhAAEIQAACEIAABCAAgdMEaAJOo8MRAhCAAAQgAAEIQAAC9yRAE3DPc6NqCEAAAhCAAAQgAAEInCaw1ATs/kz80/OfPnUcIQABCEAAAhCAAAQeTYAmYOH4dzchC6XjCgEIQAACEIAABCDwYAI0AQuHTxOwAA9XCEAAAhCAAAQgAIFtBJaagG1VkxgCEIAABCAAAQhAAAIQOE2AJuA0OhwhAAEIQAACEIAABCBwTwI0Afc8N6qGAAQgAAEIQAACEIDAaQJLTcDuz8Q/Pf/pU8cRAhCAAAQgAAEIQODRBGgCFo5/dxOyUDquEIAABCAAAQhAAAIPJkATsHD4NAEL8HCFAAQgAAEIQAACENhGYKkJ2FY1iSEAAQhAAAIQgAAEIACB0wRoAk6jwxECEIAABCAAAQhAAAL3JEATcM9zo2oIQAACEIAABCAAAQicJrDUBOz+TPzT858+dRwhAAEIQAACEIAABB5NgCZg4fh3NyELpeMKAQhAAAIQgAAEIPBgAjQBC4dPE7AAD1cIQAACEIAABCAAgW0ElpqAbVWTGAIQgAAEIAABCEAAAhA4TYAm4DQ6HCEAAQhAAAIQgAAEIHBPAjQB9zw3qoYABCAAAQhAAAIQgMBpAktNwO7PxD89/+lTxxECEIAABCAAAQhA4NEEaAIWjn93E7JQOq4QgAAEIAABCEAAAg8mQBOwcPg0AQvwcIUABCAAAQhAAAIQ2EZgqQnYVjWJIQABCEAAAhCAAAQgAIHTBGgCTqPDEQIQgAAEIAABCEAAAvckQBNwz3OjaghAAAIQgAAEIAABCJwmsNQE7P5M/NPznz51HCEAAQhAAAIQgAAEHk2AJmDh+Hc3IQul4woBCEAAAhCAAAQg8GACNAELh08TsAAPVwhAAAIQgAAEIACBbQSWmoBtVZMYAhCAAAQgAAEIQAACEDhNgCbgNDocIQABCEAAAhCAAAQgcE8CNAH3PDeqhgAEIAABCEAAAhCAwGkCS03A7s/EPz3/6VPHEQIQgAAEIAABCEDg0QRoAhaOf3cTslA6rhCAAAQgAAEIQAACDyZAE7Bw+DQBC/BwhQAEIAABCEAAAhDYRmCpCdhWNYkhAAEIQAACEIAABCAAgdMEaAJOo8MRAhCAAAQgAAEIQAAC9yRAE3DPc6NqCEAAAhCAAAQgAAEInCaw1ATs/kz80/OfPnUcIQABCEAAAhCAAAQeTYAmYOH4dzchC6XjCgEIQAACEIAABCDwYAI0AQuHTxOwAA9XCEAAAhCAAAQgAIFtBJaagG1VkxgCEIAABCAAAQhAAAIQOE2AJuA0OhwhAAEIQAACEIAABCBwTwI0Afc8N6qGAAQgAAEIQAACEIDAaQJLTcDuz8Q/Pf/pU8cRAhCAAAQgAAEIQODRBGgCFo5/dxOyUDquEIAABCAAAQhAAAIPJkATsHD4NAEL8HCFAAQgAAEIQAACENhGYKkJ2FY1iSEAAQhAAAIQgAAEIACB0wRoAk6jwxECEIAABCAAAQhAAAL3JEATcM9zo2oIQAACEIAABCAAAQicJrDUBOz+TPzT858+dRwhAAEIQAACEIAABB5NgCZg4fh3NyELpeMKAQhAAAIQgAAEIPBgAjQBC4dPE7AAD1cIQAACEIAABCAAgW0ElpqAbVWTGAIQgAAEIAABCEAAAhA4TYAm4DQ6HCEAAQhAAAIQgAAEIHBPAjQB9zw3qoYABCAAAQhAAAIQgMBpAktNwO7PxD89/+lTv9jxt9/S1+jiLISDAAR2E+DX+u4TID8EIACB6wikt7evr69Whqdfwnfv/z/+5X9+6Gkd2AuMRpeCld5gxVfb/P2vf9f07aNx0fOq5Dv396o9+bhn9jd6H33sV8+rOir5K+o5w69Txzv30KkHGwhAAAIQOEcgbQK6oXZfgp+c3y7/u79ml4GVi/yKr7i86hKk+NUYucR15XdUvmt/R+s8am/70nPU91Wsr6rjnfW98v145z6OssceAhCAAAR6BH6zP/WfPb1QWL2TwB2agBUeVzQBK/nP+laXo0yeyc7mXfGzOj6lFr+PM5fYT9lHVUcl9/vW/IitfI6Ms/gj/Uh3pAZsIQABCEBgH4E/moBR+u5Hg0Yx0F1PYHcT8OpLAE3A9e9MjGhn+OpzjDmPrGkClv6idop6dvar+mkBGEAAAhCAwFYCNAFb8R9Prn8DEMcYyesznclGNtEnrmcXBLPPLvKS2ajHx5Ysjt6mOz97ibS9ZU8nb8WlkndiVjZn9mextLcq7kxuef0T7VVXZTPTK57stO6MXc5iEO21rvRWg9dprtq0jqPXxxjSXT3O+FmNo69V/Sg2OghAAAIQ2E9gqQl48mfy7eh27t8u8NVX1GXrKKtiVfLZBcH8sjuGLvc+bmXnbc7MZ5egMzFnPhWXSj6LN9Kf2d9qHVnOKLN1lPl9zPSyHcWQTRw7+4s2fm1zv7b4fu3nyt2VKVa0j2vFXR0zfparenx9mU2s51V1xzysIQABCEDgNQR+NgF/+9vffsTHUo4+DrTzEmy1PTl/dYnvyCubI69Y5wLQvdx37Y7UZ7bZJehojKP2FZdKfjS+tz+7P6vlynpiHXHta7b5TC/7rp3sbZztq9JLrrGKOdPLL7Or6qtsFevsOOM3y7uqP1s3fhCAAAQg8B4CP5uAKh1NQEVmbxNSXeQ78sqm3umvmtkFwTy6l/uu3a9VjCWzS1Dmbfuqnsw+yioulTz6H1mf2Z+Pr316WWdueePj/WZ1zfSK1bWTvY0zztpzNlb+PqafK29X1omvmFeMM35Z3T7vqt7HYg4BCEAAAp9HYKkJ+LztPKei6iLfkVc2R+jNLggWq3u579odqc9sZ5ego/E69hWXTJ7JOjlkc9X+rI5uLVnOKItr1atxpj9qJ3sbZ/s4o/c+fq68XVlVX+Zf2SpnZ5xxrvIq9qpecRghAAEIQOAzCdAEfOa5TKuqLvIdeWUzTRoM5peE4LDYGPwabSyZXYLG3ue0FZNMnsmOZN2xvyxnlMV13NNML/uunextnDE9o48+to6Pr2FUR4x11DbmGa3P8BvF87psH17PHAIQgAAEPp/AH00A/5+Azz+oWOHoIh91s3WM3V3PLgLdP+Hv2nXrkt0rL0HKkY2RS1zLp5JLPxt37C/LGWVxHfcx08t+Zpfxy2SKpzGzkUyjbG3MZDN95ZPJM1knr68hm8/4ZT5dWVVz1x87CEAAAhDYT2D8M+Im9T35H+Yamp37jxf7eFSm15PpouzsenQZ6F7uMzurx+R6ztT3ykvQrB7joiezHXHL7DPZrv1ZXv9Ybb4WP1+pexYnYyjmcYx1VPoqpvxnetnZ6HNI3vXP7BSjO874deNEuytqizFZQwACEIDA+wmkTcDoHwP7Endegq2Op+f3Z7FzzqVgJ31yv5uAve/+eXf+nfn4tb6TPrkhAAEIXEuAJmCB5+4mZKF0XCEAAQhAAAIQgAAEHkxgqQl4MDe2DgEIQAACEIAABCAAgdsSoAm47dFROAQgAAEIQAACEIAABM4RoAk4xw0vCEAAAhCAAAQgAAEI3JbAUhOw+zPxT89/27eOwiEAAQhAAAIQgAAEthKgCVjAv7sJsdL1U0oWtoErBCAAAQhAAAIQgMDDCNAELBz47iaAH9e3cHi4QgACEIAABCAAgQcTWGoCHsztI7ZOE/ARx0AREIAABCAAAQhA4HYEaAJud2T/LJgm4J8smEEAAhCAAAQgAAEI9AnQBPRZfZwlTcDHHQkFQQACEIAABCAAgVsQWGoCdn8m/un5aQJu8WuMIiEAAQhAAAIQgMDHEaAJWDiSXU2IXf5pABYODlcIQAACEIAABCDwcAI0AQsvwK4mQCXTCIgEIwQgAAEIQAACEIDAEQJLTcCRRNheT4Am4HqmRIQABCAAAQhAAAJPIEATcONTpgm48eFROgQgAAEIQAACENhIgCZgI/zV1DQBqwTxhwAEIAABCEAAAs8ksNQE7P5M/NPz0wQ88xctu4YABCAAAQhAAAKrBGgCFgjubkJoAhYOD1cIQAACEIAABCDwYAI0AQuHv7sJsNKtEaAZWDhEXCEAAQhAAAIQgMADCSw1AQ/kxZYhAAEIQAACEIAABCBwewI0Abc/QjYAAQhAAAIQgAAEIACBYwRoAo7xwhoCEIAABCAAAQhAAAK3J7DUBOz+TPzT89/+7WMDEIAABCAAAQhAAAJbCNAELGDf3YQslI4rBH7811/+AoUFAlfwuyLGaAsr8Vd8raZV/9G+3hF/lh89BCAAgbsToAlYOMHdTcDu/AvocH0jgeqnR11xSbvbT6fq1FtxifK47h6p9/Pzrv/Mzsf0c+9ncj1e7ueVr7cZzc/6q65s9PnOxvcxjs6rX0tH42APAQhA4BMILDUBn7CBJ9ewswn41//87x96PvUMrL6rv/79337/GbKa/zSYTLx/NB3pou1oXV1a/AUr8/cXLD/3tlVs2fz+179rumUc1TfSVfuN8ri2TZps9MhGQLIY0lVj5uNl1VzxvN5kWtsYH/lk48xWcTPfM7IYL67PxKx8fGw/N/vRu1PFQw4BCEDgEwnQBHziqTRr2tUExMt1XDfLf7nZK+ryl/Nq3t2Y948+I120rdbVZUWXmjj6ONKZzM+9TRVfNruaAKtLj2qJ46j2ar9RHtc+h9f5udn4tZ97/9E88/Gyah5z+xzeR/JMNtJF+7iW79kxxovrs3EzPx/bz2U7en9kwwgBCEDg0wnQBHz6CX1YfdXFupLvLP8VNfnLeTW/Ys8+9tl42UXFX2iqueUb6VRPFl+6K8bV+CP/kc723n2qfY74jXRVPC/3/pJ7WTU3W6+TbyU/YqtY3sfPpT87ZrFM5h8fO7P3+tnc+/u5/EbvzxEb2TJCAAIQ2EFgqQnY9SfRAvX0/OLwzrG6WFfyd9YWc72iJn85r+axjjNrH/uMf3VJ8RcaP485vM7PvV2Vw9uszFfjj/xHumq/UR7Xfq9e5+dm49d+7v1H88zHy6p5zO1zmE/2eBvNfXzJNHqdn0t/ZqziVHLLMdJ1avD+fu59R++Q2c30PhZzCEAAAjsI0AQsUN/dhCyUftq1e7E2Oz0+mfyl0zrajPRmO9PLxsf1846/t9dcl/NqNDuvs7nWiqExk8s+jvLR6PWS+XF0AdGlRqP3OzIf5bA4qx8HmsWf1TryH+kqLlEe174er/Nzs7G1f7xfZ+59/Vy+Xmbz+BVlcS37Sm76TBdlca243dH8RzFGum6OFbvRO7QSF18IQAAC7yJAE7BAencTsCN/dmmPCKONX+vy7X2i3uts7vWdtfyjXyWv7GTvR13cq9FsdUH3ftlcMVZ1WZzZBWV2wcpqksxiz+Kb7ZkmQLGzUfm746xG5YjxqstllMe1j+N1fm42fu3n3n80z3y8rJr7mGajx8v93Mfxcs3lr1FyjTN/2flRsTq+HRsf++r57P26Oh/xIAABCFxNYKkJuLoY4h0j8IlNQHWhllyj36mX+bm30bzSZ/KuzGJntsrpR124q9FspfN+2XxkV+m68s4FRReurLaObJbjTBPg887ie9tsPvIf6cQlG32e6hIqeRzlK7mt/Vz62Zj5eFk1n8W9Wu/ruDr2J8QbvUOfUB81QAACEJgRoAmYEfpg/XdsAgy3XcirS/kReWar2NnYOWpdwqvRYkg3izeyq3Qmrx6fr3NB0SVNo/fvzGc57toEdPZuNhU3L9dcY/Tz8pW8Pk419/HNpvN4n6NzX8eqb4wV10fjX2E/e/+vyEEMCEAAAq8kQBPwSrrfMHZ2sbZtSq4xbl1yjV6fyRQz6uJacTJ5V6YY3TFe0GfrKm7083aVrpJ7X5t3Lij+IuXnMVa1nuV4YhMQOfq15hqNq59XnKM88/Gyah7jzNY+zsw206/4R9/ZOuaP9lF/xXr2/s/0V9RADAhAAAIrBJaagB1/Eu03+/T8nsW75tnF2nJLrjHWI7lGr89klb6yzeRdmc/VmceL+GxdxYx+3q7SVXLvq3l2CfGXo2ou/9mYxfc+q02Aj3VmPqpvpLNcns2Z3KMYPrafd/OYT/bI38f0c+lVWxYjyrzPET/Fif7dtfz96H1NPvqa6Ue+Hd3s/bEYHZtOLmwgAAEIvIoATcAC2d1NyELpS67xcn1kHW2tEC/zcxUZZbN15TeSx5hmW30Tjxfx2Vp54xj9vP6oLrOv6tcFKY4+f2dexZfv05sAcYijuJvcz6Pd2bWP6ec+XiX3NqvzlRzRd7ZerfWo/+zdt3gdm6N5sYcABCBwJQGagAWau5uAnfnt0qwnQyhdvFzHtflGmfeNOuXyNpLFsfJVzlmM6pt4vHDP1rEuraOf5BpNr0cyjZJrlDyO1R7sUqUn+nTXVWz50wSIxJ9Hf6H18z9bnV/5mH7uI1Zyb7M6X8kRff1ac42rdR71n733Fq9jczQv9hCAAASuJrDUBFxdDPGOEdjZBByrFOudBKoLyRWXKItdxd+55yp3t15j03mqPF35FWcwylXF7+yt8h3l87oV/1F9V+XwcbrzO73r3T1hBwEIPJcATcCNz54m4MaHR+kQgAAEIAABCEBgIwGagI3wSQ0BCEAAAhCAAAQgAIEdBJaagN1/Ev30/DteGHJCAAIQgAAEIAABCNyfAE3AwhnubkIWSscVAhCAAAQgAAEIQODBBGgCFg5/dxOwO/8COlwhAAEIQAACEIAABDYSWGoCNtZN6h8/fjy5CdBPedHYfSFkr7Hrh90+AnZWfEGgIuDfDz/P7Gf6zAcZBCAAge9KIP3u+vX19V33+6329d2bgNHPme98Mx/524vQifHKF2blbnvWV/9fAT++co+rsaszmv0/HlbzXuE/+v9UnI3vz03zs7GO+Fku+9LY8T1i24mX2WTvRybzvjO9t2UOAQhA4DsToAn4zqd7073Z5V1PtYXON3KagF/pZRezTPar5/sl1RnHy3Vcv7/SPOMr6srOKpPlFZ2XKofGTqQjtp140aZ6P8xupOvoYy7WEIAABL4jgaUmYPefRD89/3d8If2eRpf42Td5H6eaXxGjiv1q+crfBGS1vfrCluWcybLzqS7WlXyW45X6V9RUnVMlv2p/iq/xqrgrcbL3Q/FGOrOZ6bs2yscIAQhA4I4EaAIWTm13E7JQ+i1caQLqY/ruTUB1Sasu1pW8Jvh6zStqqi7hlfyqXSq+xqvino1TvR8+3sxmVe9zMYcABCBwRwI0AQuntrsJ2JVfH9XRGBHq8i691rLTutJHO639OPsGbrbK4/38vBPD29vcfKon2s7W2UVeMhv1+DiSxdHbjObVJc7Lbe6fGE+2lY2XyzaLIbuos3V1Nt2Ltdnp8fHlL53W0WakN9uZXjY+rp93/L295iOesrFRbDN7r8v0mb/sNPpc1TyzlcxGPZm/dLKPNtX74e1mNjO9j8UcAhCAwHcksNQEfEcgd9rTjiYgu1hHmS73FcuZXn4xruQ2dr6Bj/y7MXzOq+d2kY9futx7eWXnbbrz7FLlZX6umFFm6yirbE0ebWdr86nON7u0K7fGaOPXunzL1sao97qo76zl7+NKdsTf+2ge2Zk8ykbrqOv6y0+j6hmNma3Jovzo2nJW74evZ2Yz0/tYzCEAAQh8RwLJNeTHD3460D2OekcTkJGJl+24jj4zvexHdp1v4CN/y9GJoVpeMXYv9127To26hPlx5je7pHn/aOt1Nq/0UV6dTXWxVp5KL7lG2dvoZX7ubTSv9Jm8K4s1KFc2Gqf4eLvIUbpKbnqv83P5eptK7201z2xnskzv8yt29X5Ib+PMZqb3sZhDAAIQ+I4EaAK+46m+eE92uY6PTzm7fM/0ijWy63wDH/lbjk4M1aLRfKpHNt2xe7nv2nXyVpcs72s28Yl6v45z+Ua5raXLRm9fnU12sfZ+lV5yjSMfs8nszOeIPLNV7Gz0NVVz4xa/vCzjKpn8tPaj12nuR7O1L41eV80z25nM9NXj81TvxxGbTgwfjzkEIACB70ZgqQnY/SfRT8+/42XMLtZRFtexzple9iO7zjfwkb/l6MRQLa8Yu5f7rl2nxuwS5v0yfZTFtff3c7OLtnHt7f28OpvsYm1+kmv0sWb6kU/UxbXyZPKuTDE6Y8VPco1VrEzvZX7uY0iu0euqeWY7k2X6LH71fnjbmc2q3udiDgEIQOCOBGgCFk5tdxOyUPpp1+xiHWVxHZPN9LIf2c2+gVuMkb/pOzFUyyvG7uW+a9epcXbJyvRRFtezvN7ez2d+2flkF2uLI7nGGFtyjV6fySp9ZZvJuzKfazav+EmusYqT6b3Mz30MyTV6XTXPbGeyTF/Fz94P2Y50ZjPTd22UjxECEIDAHQnQBCyc2u4mYEf+7GIdZXEdEc/0sh/Zdb6Jj/wtRyeGannF2L3cd+1ijdn+ZpesTB9lce3zZrooi2vzz2RZ/WYbL9dH1tE2xpvpo322Npl9ZbEqeWab7T/jZDG93M//KMTpR7po69fy0yjdaMxsO7KOjeXN+KiekW7m240hO0YIQAACdyWw1ATcddPfpe4dTYCxs8u1fyQT19nle6bvxJl9k481KaYfOzG8/dXz7uU+s7NaTK4nqy3bX3bBir5m4x/Tez8/j76yjf7RzutH8bI9WCy7NOuJsUf67LIdZYqr8Uh8bxvjRp3iV3bZ3itWUT7im+lG/la39NFXa783zeWjtY/TkSl2Fkf+GaNMJnsbZ/qujY/JHAIQgMAdCdAE3PHU/q/mXU3AJyCzb+T+6dbkfTqXgW5c7F5HgHN6HdvvENm/H36e7W2mz3yQQQACEPiuBGgCvuvJsi8IQAACEIAABCAAAQgUBJaagN1/Ev30/MWZIoYABCAAAQhAAAIQgMCQAE3AEM9YubsJGVeHFgIQgAAEIAABCEAAAjkBmoCcS0tKE9DChBEEIAABCEAAAhCAwIcRWGoCPmwvlAMBCEAAAhCAAAQgAAEINAjQBDQgfZKJ/XQLfsLFJ50ItUAAAhCAAAQgAIH7EaAJuN+Z/VExjcBND46yIQABCEAAAhCAwAcQWGoCdn8m/sn5aQI+4FcPJUAAAhCAAAQgAIGbEqAJWDi4nU0ITcDCweEKAQhAAAIQgAAEHk6AJmDhBaAJWICHKwQgAAEIQAACEIDANgJLTcC2qknMPw7mHYAABCAAAQhAAAIQOE2AJuA0uv2O9pEgPha0/xyoAAIQgAAEIAABCNyNAE3A3U7s/+rl8n/Tg6NsCEAAAhCAAAQg8AEElpqAnZ+JN3ZPzk8T8AG/eigBAhCAAAQgAAEI3JQATcDCwe1sQmgCFg4OVwhAAAIQgAAEIPBwAjQBCy8ATcACPFwhAAEIQAACEIAABLYRWGoCtlVNYv5BMO8ABCAAAQhAAAIQgMBpAjQBp9HtdeTjQHv5kx0CEIAABCAAAQjcmQBNwM1Ozy7/NAA3OzTKhQAEIAABCEAAAh9GYKkJ2PmZeOP49Pwf9i5RDgQgAAEIQAACEIDATQjQBCwc1O4mZKF0XCEAAQhAAAIQgAAEHkygbAK+vr5+6Kn47L4EPz1/dS7IIQABCEAAAhCAAAQgMCJQNgEjJ3QQgAAEIAABCEAAAhCAwH0J0ATc9+yoHAIQgAAEIAABCEAAAqcI0AScwoYTBCAAAQhAAAIQgAAE7ktgqQl4+mfyd+//vq8dlUMAAhCAAAQgAAEI7CRAE7BAnyZgAR6uEIAABCAAAQhAAALbCNAELKCnCViAhysEIAABCEAAAhCAwDYCS03AtqpJDAEIQAACEIAABCAAAQicJkATcBodjhCAAAQgAAEIQAACELgnAZqAe54bVUMAAhCAAAQgAAEIQOA0gaUmYPdn4p+e//Sp4wgBCEAAAhCAAAQg8GgCNAELx7+7CVkoHVcIQAACEIAABCAAgQcToAlYOHyagAV4uEIAAhCAAAQgAAEIbCOw1ARsq5rEEIAABCAAAQhAAAIQgMBpAjQBp9HhCAEIQAACEIAABCAAgXsSoAm457lRNQQgAAEIQAACEIAABE4TWGoCdn8m/un5T586jhCAAAQgAAEIQAACjyZAE7Bw/LubkIXScYUABCAAAQhAAAIQeDABmoCFw6cJWICHKwQgAAEIQAACEIDANgJLTcC2qkkMAQhAAAIQgAAEIAABCJwmQBNwGh2OEIAABCAAAQhAAAIQuCcBmoB7nhtVQwACEIAABCAAAQhA4DSBpSZg92fin57/9KnjuJ3Ab7/99sM/3YK8j835ggAEIAABCEAAAmcIpLeIr6+vVqynX8J373/lDrji23o5MPrx+1//XlKYXeD9Zb8KMotR+SGHAAQgAAEIQAACNAEL7wBNwAK8b+xql3891TZHF/ioi2vFrOTSM0IAAhCAAAQgAIGKwFITUAVF/vkE+JuA15/Rmb8JqC72mTyT+V3N9N6WOQQgAAEIQAACzyJAE/Cs8/65W5qAnyheNqEJeBlaAkMAAhCAAAQgsEiAJmAR4E737CIvmY16fI2SxdHbjOb6mIsuuFp7H8k0Rp1fa654Wlej/el29VQ+Ua66NGZ6k0kfa9O60iue7LT2Y/Wn9Efkla3PwxwCEIAABCAAAQhkBJaagN2fiX96frvIxy9d7r28svM23bm/2GZzL1PMKJut5feKMea2HFFm6yjztcz0sh3FqC7wR+SVrfIzQgACEIAABCAArPkqkQAAIABJREFUgYpAco388YOfDlTh+rN8dxPSvdx37f68u3zlL7bVPHp6O+kk0yj5jjHWENexpple9iO76gJ/RF7ZKj8jBCAAAQhAAAIQqAjQBFRkGnKagH/+CEx/4bV5fDKc3ifTZzK7+FZPZp/JYm2xjriOMWZ62Y/sqgv8EXllq/yMEIAABCAAAQhAoCKw1ARUQZG/h0D3T/i7dp2q/cU2m3uZ4mUy01Vy+b1izHJGWVzHOmZ62Y/sqgv8EXllq/wzvewYIQABCEAAAhB4HgGagBufefdy37XroPAX22zuZYo3kmU6+b1izPJFWVzHOmZ62Y/sqgv6EXllq/wzvewYIQABCEAAAhB4HgGagBufefdy37XroPAX22zuZYoXZbO1/F4xxtyWI8riOtYx08t+ZDe6oEddXCt+Je/qZccIAQhAAAIQgMDzCCw1Abs/E//0/N3LfWZnr7rJ9XRffX+xHc1Np8diy1ZjzFfJo90Va9Wl0dcX51m+bq0ju84F3mxGdmd12Z6QQQACEIAABCDwLAI0AQvnvbsJWSgd180EdMHX2C1H9hq7fthBAAIQgAAEIAABT4AmwNM4OKcJOAgMcwhAAAIQgAAEIACBjyCw1AR8xA4oAgIQgAAEIAABCEAAAhA4RIAm4BAujCEAAQhAAAIQgAAEIHB/AjQB9z9DdgABCEAAAhCAAAQgAIFDBJaagN2fiX96/kMnjTEEIAABCEAAAhCAAAT+jwBNwMKrsLsJWSgd180E9NN9NHbLkb3Grh92EIAABCAAAQhAwBOgCfA0Ds53NwHVz//vbGPFtxPfbEY/J78b4852o/3bJX70pUv+yG6kG8VGBwEIQAACEIAABNKbyNfXF2RuQGByjxzuYMV3GNgpR5dgZ/btprZvPdXmRhf4qItrxazk0jNCAAIQgAAEIACBigBNQEXmm8vf0QR8c4TT7Y2aoOoCf0Re2aqwmV52jBCAAAQgAAEIPI8ATcDzzvyPHdMEvP7gaQJez5gMEIAABCAAAQicI7DUBOz+TPzT82cXecls1ONfDcni6G1Gc33MRRdcrTMf2XidZPLT2tuM5van29Uz8vM6nzvLL5m3i/62rvSyVRyt/Vj9Kf0ReWXr8zCHAAQgAAEIQAACGQGagIxKU7a7CbGLfPzS5d7LKztv0537i201Vyyv97Ioj2vZvmLMckWZraPM1zLTy3YUo7rAH5FXtsrPCAEIQAACEIAABCoCyTXyx4/uPwzefQl+ev7u5b5rV70kXu4vttVc9l5/VCb7d4yxzriONcz0sh/ZVRf4I/LKVvkZIQABCEAAAhCAQEVgqQmogiJ/D4Hu5b5r16naX2yrueJ4/VGZ7ONoF9/qibbV2uqKj7fN6j6il+0oTnWBPyKvbJWfEQIQgAAEIAABCFQEaAIqMjeQdy/3XbvOlv3Ftporjtcflcn+6rFTU2bj65jpZTuyqy7wR+SVrfLP9LJjhAAEIAABCEDgeQRoAm585t3Lfdeug8JfbKu54nj9UZnsrx47NWU2vo6ZXrYju+qCfkRe2Sr/TC87RghAAAIQgAAEnkdgqQl4+mfyd++/e7nv2nVef3+xreaK4/VHZbK/euzUlNn4OmZ62Y7sRhf0qItrxa/kXb3sGCEAAQhAAAIQeB4BmoCFM79zE2DbtuZATxeDv9hWc8Xy+qMy2b9itLr8Yzl8rX6e5Z/p5TOy61zgzWZkd1an+hghAAEIQAACEHguAZqAhbPf3QQslI7rZgK64GvsliN7jV0/7CAAAQhAAAIQgIAnsNQE+EDMIQABCEAAAhCAAAQgAIF7EKAJuMc5USUEIAABCEAAAhCAAAQuI0ATcBlKAkEAAhCAAAQgAAEIQOAeBJaagN2fiX96/nu8YlQJAQhAAAIQgAAEIPBpBGgCFk5kdxOyUDquEIAABCAAAQhAAAIPJkATsHD4NAEL8HCFAAQgAAEIQAACENhGYKkJ2FY1iSEAAQhAAAIQgAAEIACB0wRoAk6jwxECEIAABCAAAQhAAAL3JEATcM9zo2oIQAACEIAABCAAAQicJrDUBOz+TPzT858+dRwhAAEIQAACEIAABB5NgCZg4fh3NyELpeMKAQhAAAIQgAAEIPBgAjQBC4dPE7AAD1cIQAACEIAABCAAgW0ElpqAbVWTGAIQgAAEIAABCEAAAhA4TYAm4DQ6HCEAAQhAAAIQgAAEIHBPAjQB9zw3qoYABCAAAQhAAAIQgMBpAktNwO7PxD89/+lTxxECEIAABCAAAQhA4NEEaAIWjn93E7JQOq4QgAAEIAABCEAAAg8mQBOwcPg0AQvwcIUABCAAAQhAAAIQ2EZgqQnYVjWJIQABCEAAAhCAAAQgAIHTBGgCTqPDEQIQgAAEIAABCEAAAvckQBNwz3OjaghAAAIQgAAEIAABCJwmsNQE7P5M/NPznz51HCEAAQhAAAIQgAAEHk2AJmDh+Hc3IQul4woBCEAAAhCAAAQg8GACNAELh08TsAAPVwhAAAIQgAAEIACBbQSWmoBtVZP4owj89lv6Gn1UjRQDAQisE+DX+jpDIkAAAhD4FALp7e3r6+tT6qOOAYH/+Jf/+aFnYPZS1ehSsNIbrPhqw7//9e+avn00LnpelXzn/l61Jx/3zP5G76OP/ep5VUclf0U9Z/h16njnHjr1YAMBCEAAAucIpE3AuVB4vZOAXf53f80uAysX+RVfcXnVJUjxqzFyievK76h81/6O1nnU3val56jvq1hfVcc763vl+/HOfRxljz0EIAABCPQI/GZ/6j97qlC7PxP/5Px3aAKq96Yjv6IJ6OS52qa6HGXyTHZ1PZ14Vsen1OLrPXOJ/ZR9VHVUcr9vzY/YyufIOIs/0o90R2rAFgIQgAAE9hH4owkYpR99NOjJl3BjtnP/u5uAV18CaAJGvyqv0dkZvvocVyqlCXjtX9TOzn5Vv3L2+EIAAhCAwOsJ0AQsMN7RBOjfAMQxbsPrM53JRjbRJ65nFwSzzy7yktmox8eWLI7epjs/e4m0vWVPJ2/FpZJ3YlY2Z/ZnsbS3Ku5Mbnn9E+1VV2Uz0yue7LTujF3OYhDtta70VoPXaa7atI6j18cY0l09zvhZjaOvVf0oNjoIQAACENhPYKkJ2F/+cyuwC3z1FXXZOsqqWJV8dkEwv+yOocu9j1vZeZsz89kl6EzMmU/FpZLP4o30Z/a3WkeWM8psHWV+HzO9bEcxZBPHzv6ijV/b3K8tvl/7uXJ3ZYoV7eNacVfHjJ/lqh5fX2YT63lV3TEPawhAAAIQeA2Bn03A3/72tx/xsZSjjwO9piSidghUl/iOvLLp5JVN5wLQvdx37ZS7O2aXoK7vWbuKSyU/m8f8zu7ParmynlhHXMc9zvSy79rJ3sbZviq95BqrmDO9/DK7qr7KVrHOjjN+s7yr+rN14wcBCEAAAu8h8LMJqNLRBFRk9sqri3xHXtkc2dHsgmCxupf7rt2R+sx2dgnK4tm+qiezj7KKSyWP/kfWZ/bn42ufXtaZW974eL9ZXTO9YnXtZG/jjLP2nI2Vv4/p58rblXXiK+YV44xfVrfPu6r3sZhDAAIQgMDnEVhqAnZ8Jt4jfHL+6iLfkVc2nu1sPrsgmH/3ct+1m9UU9bNLULS/Yl1xyeSZ7EgNV+3P6ujWkuWMsriOe5rpZd+1k72Ns32c0XsfP1ferqyqL/OvbJWzM874VXkVe1WvOIwQgAAEIPCZBGgCFs5lZxNSXeQ78srmKIr5JeHXiN0Lf2b3a7SxZHYJGnuf01ZMMnkmO5J1x/6ynFEW13FPM73su3ayt3HG9Iw++tg6Pr6GUR0x1lHbmGe0PsNvFM/rsn14PXMIQAACEPh8An80Afx/As4d1Cc2AbaTeMmfrc/tvnPh+jVydrnvyn6NNpa88hI0yhwvSHEt30ou/Wzcsb8sZ5TFddzHTC/7mV3GL5MpnsbMRjKNsrUxk830lU8mz2SdvL6GbD7jl/l0ZVXNXX/sIAABCEBgP4Hxz4jbXx8VFATixT6amV5Ppouys+vRZaB7uc/srB6T6zlT3ysvQbN6jIuezHbELbPPZLv2Z3n9Y7X5Wvx8pe5ZnIyhmMcx1lHpq5jyn+llZ6PPIXnXP7NTjO4449eNE+2uqC3GZA0BCEAAAu8nkDYB/GPg9x/EnTNyKbjz6VH7UQL2vvvnqP+d7fm1fufTo3YIQAACfyZAE/BnHqwgAAEIQAACEIAABCDw7QksNQE7PxNvJ/P0/N/+7WSDEIAABCAAAQhAAAIvIUATsIB1dxOyUDquEIAABCAAAQhAAAIPJkATsHD4NAEL8HCFAAQgAAEIQAACENhGYKkJ2FY1iSEAAQhAAAIQgAAEIACB0wRoAk6j+wxH/ZSSz6iGKiAAAQhAAAIQgAAE7kCAJuAOp1TUyI/rK8AghgAEIAABCEAAAhAYElhqAnZ/Jv7p+WkChu82SghAAAIQgAAEIACBggBNQAGmI97dhNAEdE4JGwhAAAIQgAAEIACBSIAmIBI5sKYJOAALUwhAAAIQgAAEIACBjyGw1AR8zC4eWgh/E/DQg2fbEIAABCAAAQhAYJEATcAiwB3udvmnAdhBnpwQgAAEIAABCEDgexCgCbjxOdII3PjwKB0CEIAABCAAAQhsJLDUBOz+TPzT89MEbPyVQ2oIQAACEIAABCBwYwI0AQuHt7sJoQlYODxcIQABCEAAAhCAwIMJ0AQsHD5NwAI8XCEAAQhAAAIQgAAEthFYagK2VU3iPwjwNwG8CBCAAAQgAAEIQAACZwjQBJyh9iE+NAEfchCUAQEIQAACEIAABG5GgCbgZgcWy7VGgGYgUmENAQhAAAIQgAAEIDAisNQE7P5M/NPzjw4WHQQgAAEIQAACEIAABCoCNAEVmYZ8dxPSKBETCEAAAhCAAAQgAAEI/EKAJuAXJH0BTUCfFZYQgAAEIAABCEAAAp9DYKkJ+JxtUAkEIAABCEAAAhCAAAQg0CVAE9AlhR0EIAABCEAAAhCAAAS+CQGagBsf5FM+jvSJP/1IP5VJY/c1kr3Grt9d7GxffEEAAhCAAAQg8PkE0u/YX19frcp3X0LJ/7+tc3qV0X/8y/8MQ5tez9BwoNx5qfz9r38vK+vUNfK3wJ0YZQEfrPiu+/pg5JQGAQhAAAIQOEwgbQK6UbiE772E7+Y/agJGuu77tesyaZd3PVWtndqe2gQYsw6fii1yCEAAAhCAAAReT+A3+1P/2VOVsfsS+vT81bl8gvzOTYD4jS7xV1xyz8QwnzN+2tO7xjvU+C4W5IEABCAAAQh8IoE/moBRYd2PBo1ioHsegdUm4BMukZ/YBOhNukMz8AlnKF6MEIAABCAAAQj8mQBNwJ95sDpAILvomyx7DoT9w3R0gdRHdTTG2Lq8S6+17LSu9NFOaz+O6pOd8mgdx06M6BPXFuNInLhnrX1cyTRGnV9rbrbx60hd0Zc1BCAAAQhAAAKvJUAT8Fq+L42+++NQWROgDY90shmN1QUyu2xGWXZ59blmetnGuJLbWNXnbUb+3Rg+3mjeqcf8fU3Z3MuUL8pma/l1a5I9IwQgAAEIQAAC7yPwswn429/+9iM+Vsbo40C7L6Hk3/sPk0cX/ZGu83ofuUB2L6XKG+0lj+PIrlPfyN9ydWLEmuLaYhyJ42uq5jGHt5NOMo2S+/FIXd6POQQgAAEIQAACryfwswmoUtEEVGR+/Hh6EzK66I90NdF/akYXSLt4xuefnn/+024v13x0cZWNjSO7UX2KMfI3m04MxYqj+Z7x9zWN5qbzT8xva++f6c/Ul8VBBgEIQAACEIDA9QRoAhaY7m4CFkq/xHV00R/pOsmrC2R28YyyuI75ZnrZj+yq+uRr48jf9J0YPp58zvgpjq8pm3tZ5iOZjZmt16/U6eMwhwAEIAABCEDgegJLTcD15RDxTgRGF/2RrrvH7BKZXTyjLK5jvple9iO7rDb5aRz5m00nhmJdNfqasrmXKedIlul27U31MkIAAhCAAAQgMCfwRxNw9v8TMA+PxXcmMLroj3RdJtklObt0Rllcx3wzvexHdllt8tM48jebTgzFumr0NWVzL1POKJutd+1N9TJCAAIQgAAEIDAnsPR/DJ6Hx+KVBHZ/HGl00R/pjjDJLsp2CfWPxfMXUz/Pcs308hnZZXXJT+PI32w6MRTrqtHXNJqbTo/llq3GWI+X79hXrIc1BCAAAQhAAAJjAmkTMPrHwD7c7kso+ff+dCD/Lrxy/omXSqvJP939e59P3Fd3H5Xdd9xTtVfkEIAABCAAgTsToAlYOL2nNyEL6HCFAAQgAAEIQAACENhIgCZgAf7uJmChdFwhAAEIQAACEIAABB5MYKkJeDA3tg4BCEAAAhCAAAQgAIHbEqAJuO3RUTgEIAABCEAAAhCAAATOEaAJOMftI7z4ONJHHANFQAACEIAABCAAgdsRWGoCdl9Cyb//pwPpp93c7s2nYAhAAAIQgAAEIPBgAjQBC4f/9CaEHwe58PLgCgEIQAACEIAABDYSoAlYgL+7CVgo/RJXmoBLMBIEAhCAAAQgAAEIvJ3AUhPw9mpJ+FEEaAI+6jgoBgIQgAAEIAABCLQJ0AS0UWEYCdAERCKsIQABCEAAAhCAwD0I0ATc45zSKnd/HIkmID0WhBCAAAQgAAEIQODjCSw1AbsvoeTf89OB7PJPA/Dxv7YpEAIQgAAEIAABCJQEaAJKNHPF05sQGoH5O4IFBCAAAQhAAAIQ+EQCNAELp7K7CVgo/RJXmoBLMBIEAhCAAAQgAAEIvJ3AUhPw9mpJ+FEEaAI+6jgoBgIQgAAEIAABCLQJ0AS0UWEYCdAERCKsIQABCEAAAhCAwD0I0ATc45zSKnd/HIkmID0WhBCAAAQgAAEIQODjCSw1AbsvoeTf89OB9FbTBIgEIwQgAAEIQAACELgXAZqAhfN6ehNi6KwRoBlYeIlwhQAEIAABCEAAAhsI0AQsQN/dBCyUjisEIAABCEAAAhCAwIMJLDUBD+bG1iEAAQhAAAIQgAAEIHBbAjQBtz06CocABCAAAQhAAAIQgMA5AjQB57h9hBcfR/qIY6AICEAAAhCAAAQgcDsCS03A7kso+ff+dKDbve0UDAEIQAACEIAABCDwBwGagIUXgSaEJmTh9dnqqp/qpLFbjOw1dv2wgwAEIAABCEDgswjQBCycx+4mYKH0S1yfvv9LIL4wyO9//XsZ3S7xs6+Rv/l2YsxyoIcABCAAAQhAYA+B9Cbw9fW1pxqy3ooATcBnHpdd3vVUFXYu8DQBFT3kEIAABCAAgfsToAm4/xmyAwikBEaX+E4TkAZ1wlmMmd6FYgoBCEAAAhCAwJsJ0AS8GfiV6fiT+Ctpfr9YNAHf70zZEQQgAAEIQOAqAktNwO5LKPmf9w9z9TEXXXC19r8gJNMYdX6tueJpXY32p9vVU/lEuerSmOlNJn2sTetKr3iy09qPnT+lH/lbrE4Mn5M5BCAAAQhAAAKfQ4AmYOEsaELe34T4i2k29zIdbZTN1vJ7xRhzW44os3WU+VpmetmOYnQu8CN/y9GJoVoYIQABCEAAAhD4LAI0AQvnsbsJWCj9Etcd+/cX02oeN+ftpJNMo+Q7xlhDXMeaZnrZj+w6F/iRv+XoxFAtjBCAAAQgAAEIfBaBpSbgs7ZCNe8m8KlNgF1e45OxmV1yMx+7+FZPZp/JYm2xjriOMWZ62Y/sOhf4kb/l6MRQLYwQgAAEIAABCHwWAZqAzzoPqpkQ8BfTbO5lCpXJTFfJ5feKMcsZZXEd65jpZT+y61zgR/6WYxZjpledjBCAAAQgAAEIvJ8ATcD7mV+WccefxF9W/MlA/mKazb1MKUayTCe/V4xZviiL61jHTC/7kV3ngj7ytxyzGDO96mSEAAQgAAEIQOD9BJaagN2XUPK//x/mvv8V/XNGfzHN5l4mzyibreX3ijHmthxRFtexjple9iO7zgV95G85ZjFmetXJCAEIQAACEIDA+wnQBCwwpwl5fxPiL6ajuen02BHLVmM89koe7a5Yqy6Nvr44z/J1ax3ZdS7oI3+raxRjpMv2hAwCEIAABCAAgfcSoAlY4L27CVgo/RLXp+//Eoibgtgl3T/dMrwPF/0uNewgAAEIQAACn0dgqQn4vO1Q0TsJ0AS8kza5IAABCEAAAhCAwHUEaAKuY0kkCEAAAhCAAAQgAAEI3IIATcAtjikvkj+Jz7kghQAEIAABCEAAAhAYE1hqAnZfQsn//n+YO36d0EIAAhCAAAQgAAEI3IEATcDCKT29CVlAhysEIAABCEAAAhCAwEYCNAEL8Hc3AQuln3bVT4c5HQBHCEAAAhCAAAQgAIHtBJaagO3VU8A2Avx4yG3oSQwBCEAAAhCAAASWCdAELCN8ZgCagGeeO7uGAAQgAAEIQOB7EKAJuPE57vw4Ek3AjV8cSocABCAAAQhA4PEElpqAnZdQOzny7/vpQDQBj/+9AwAQgAAEIAABCNyYAE3AwuE9uQmhCVh4cXCFAAQgAAEIQAACmwnQBCwcwO4mYKH0S1ytEaAZuAQlQSAAAQhAAAIQgMBbCSw1AW+tlGQfRYDL/0cdB8VAAAIQgAAEIACBQwRoAg7hwlgEaAJEghECEIAABCAAAQjcjwBNwP3O7GfFOz+ORBPw8xiYQAACEIAABCAAgdsRWGoCdl5CjTT5+elAt/sVR8EQgAAEIAABCEDgAwjQBCwcwpObEP4mYOHFwRUCEIAABCAAAQhsJkATsHAAu5uAhdKXXWkClhESAAIQgAAEIAABCGwjsNQEbKuaxNsI2OWfBmAbfhJDAAIQgAAEIACBSwjQBFyCkSAQgAAEIAABCEAAAhC4DwGagPuc1S+VPvnjSL/AQAABCEAAAhCAAAQg0CZQNgFfX18/9FTRdl9Cyb/vpwNV7wRyCEAAAhCAAAQgAIHPJ1A2AZ3SuYTvvYTv5t95R7CBAAQgAAEIQAACEPg8AjQBC2fCJXwBHq4QgAAEIAABCEAAAtsILDUB26omMQQgAAEIQAACEIAABCBwmgBNwGl0OEIAAhCAAAQgAAEIQOCeBGgC7nluf1TNx5FufHiUDgEIQAACEIAABDYSWGoCdl9Cyb/3HyZvfG9JDQEIQAACEIAABCCwQIAmYAHe05uQBXS4QgACEIAABCAAAQhsJEATsAB/dxOwUDquEIAABCAAAQhAAAIPJrDUBDyYG1uHAAQgAAEIQAACEIDAbQnQBNz26CgcAhCAAAQgAAEIQAAC5wjQBJzj9hFefBzpI46BIiAAAQhAAAIQgMDtCCw1AbsvoeTnpwPd7lccBUMAAhCAAAQgAIEPIEATsHAIT29CFtDhCgEIQAACEIAABCCwkQBNwAL83U3AQum4QgACEIAABCAAAQg8mMBSE/BgbmwdAhCAAAQgAAEIQAACtyVAE3Dbo6NwCEAAAhCAAAQgAAEInCNAE3CO20d48XGkjzgGioAABCAAAQhAAAK3I7DUBOy+hJKfnw50u19xFAwBCEAAAhCAAAQ+gABNwMIhPL0JWUCHKwQgAAEIQAACEIDARgI0AQvwdzcBC6XjCgEIQAACEIAABCDwYAJLTcCDubF1CEAAAhCAAAQgAAEI3JYATcBtj+45hf/2W/qabgVgNfmnW4z3+cR9dfdR2X3HPVV7RQ4BCEAAAhC4M4H0dvX19XXnPT2m9t0fR/qPf/mfIWvT6xkaDpQ7L5W///XvZWWdukb+FrgToyzgDYpZ/VUJn76vqm7kEIAABCAAgScRSJuALoDdl1Dy7/3pQKMmYKTrvl+7LpN2+dVT1dqpbXaJ7sSo8r9DPqt/VMOn721UOzoIQAACEIDAEwj8Zn/qP3sqEFzC917Cd/Ov3guT37kJ0L5Gl+ArLrlXxLBaLc5VsbT31fHT6lndD/4QgAAEIACB70bgjyZgtKnRR4N2X0Kfnn90brt1q03AJ1wiP70J+MTLv3/vPuEMfT3MIQABCEAAAhD4J4GlJuCfYZg9kUB20TdZ9hzlM7pA2uXcPzG2Lu+VzUyveLLT2o+j+mQ38jebTgzF8qP5nfWNTLT28TXP6pdMflrLx49na/QxmEMAAhCAAAQg8BoCNAGv4fqIqFkToI2PdLIZjdUFMrt0RpkuqFX8mV5+Ma7kNlb1eZuRfzeGj3fWx8fwNVVz2Xu9l0V5XMu2w0i2jBCAAAQgAAEIvJfAzybgb3/724/4WCmjjwO9t1SyRQK7Pw41uuiPdHEf2frIBTJeQuM6xp/pZT+y69Q38rccnRiqxY/md9bX11TNlcvrj8rM/myNysUIAQhAAAIQgMDrCPxsAqoUoyZg9yWU/Hv/YfLooj/SVe+al48ukHY5jY/3zS6vR/SyHcUZ1dfxN5tODMXKRvM/GsPvqZorl9cflZn90dqUgxECEIAABCAAgdcToAlYYPz0JmR00R/pOsirC2TnYprZ+JwzvWxHdlV98rVx5G/6Tgwfr5pbnG4sX1M1Vx6vPyoz+25Nis0IAQhAAAIQgMD7CNAELLDe3QQslH6J6+iiP9J1k2eXyM7FNLPxOWd62Y7sstrkp3HkbzadGIp11ehrqubK5fVHZTv2phoZIQABCEAAAhCYE/ijCTj7/wmYh8fiOxMYXfRHui6T7CLZuZhmNj7nTC/bkV1Wm/w0jvzNphNDsa4afU3VXLm8/qhsx95UIyMEIAABCEAAAnMCS//H4Hl4LL4zgdFFf6Q7wiS7TNrl1D8Wz19Y/TzLNdPLZ2SX1SU/jSN/s+nEUKyrRl9TNVcurz8i27Ev1ccIAQhAAAIQgECPQNoEjP4xcC8sVu8g8JSPI33ipdJq8k/3vL3PJ+6ru4/K7jvuqdorcghAAAIQgMCdCSw1AbsvoeTf+9OB7vziUzsEIAABCEAAAhB4MgGagIXTf3oTsoAOVwhAAAIQgAAEIACBjQRoAhbg724CFkrHFQIQgAAEIADakCVgAAAgAElEQVQBCEDgwQSWmoAHc2PrEIAABCAAAQhAAAIQuC0BmoDbHh2FQwACEIAABCAAAQhA4BwBmoBz3D7C6xM+jqSfdvMRQCgCAhCAAAQgAAEIQKBFYKkJ2H0JJf/enw7Ej4Ns/RrDCAIQgAAEIAABCHwcAZqAhSN5ehNCE7Dw8uAKAQhAAAIQgAAENhKgCViAv7sJWCj9EleagEswEgQCEIAABCAAAQi8ncBSE/D2akn4UQRoAj7qOCgGAhCAAAQgAAEItAnQBLRRYRgJ0AREIqwhAAEIQAACEIDAPQjQBNzjnNIqd30cyS7/NADpkSCEAAQgAAEIQAACtyCw1ATsuoSKLPn56UB6FxghAAEIQAACEIAABPoEaAL6rH6xfHoTwt8G/PJKIIAABCAAAQhAAAK3IEATsHBMu5uAhdIvcaUJuAQjQSAAAQhAAAIQgMDbCSw1AW+vloQfRYAm4KOOg2IgAAEIQAACEIBAmwBNQBsVhpEATUAkwhoCEIAABCAAAQjcgwBNwD3OKa1y98eRaALSY0EIAQhAAAIQgAAEPp7AUhOw+xJK/r0/HcjebmsEaAY+/tc5BUIAAhCAAAQgAIE/EaAJ+BOOY4unNyHHaGENAQhAAAIQgAAEIPApBGgCFk5idxOwUDquEIAABCAAAQhAAAIPJrDUBDyYG1uHAAQgAAEIQAACEIDAbQnQBNz26CgcAhCAAAQgAAEIQAAC5wjQBJzj9hFefBzpI46BIiAAAQhAAAIQgMDtCCw1AbsvoeTf+9OBdvO/3a+2DypYP9VJY7c02Wvs+mEHAQhAAAIQgMBnEaAJWDiP3Zfgp+efHd3vf/37zORb60f7t0v87Gvkb76dGLMc6CEAAQhAAAIQ2EMgvQl8fX21qnn6JXT3/luH9EKjT9//7BL7QjRbQ9u+9VSFdC7wM36dGFV+5BCAAAQgAAEI7CWw1ATsLZ3sEIDAiMDoEn/FBX4WY6Yf1Y4OAhCAAAQgAIHXEqAJeC1fokNgGwGagG3oSQwBCEAAAhD4eAI0AR9/RHWBn/5xnLry8xp9zEUXXK2ziLLxOsnkp7W3Gc3tT7erZ+TndT53ll8ybxf9bV3pZas4Wvux86f0I3+L1YnhczKHAAQgAAEIQOBzCCw1AbsvoeR/3k8H8hfTaq5fXl7vZVEe17J9xZjlijJbR5mvZaaX7ShG5wI/8rccnRiqhRECEIAABCAAgc8iQBOwcB40Ie9vQvzFtJrrSL3+qEz27xhjnXEda5jpZT+y61zgR/6WoxNDtTBCAAIQgAAEIPBZBGgCFs5jdxOwUPolrjv27y+m1Vyb8/qjMtnH0S6+1RNtq7XVFR9vm9V9RC/bUZzOBX7kbzk6MVQLIwQgAAEIQAACn0VgqQn4rK1QzRMI+ItpNRcHrz8qk/3VY6emzMbXMdPLdmTXucCP/C3HLMZMrzoZIQABCEAAAhB4PwGagPczJ+MCAX8xreYK7/VHZbK/euzUlNn4OmZ62Y7sOhf0kb/lmMWY6VUnIwQgAAEIQAAC7ydAE/B+5pdl3PFxnMuKPxnIX0yruUJ7/VGZ7K8eOzVlNr6OmV62I7vOBX3kbzlmMWZ61ckIAQhAAAIQgMD7CSw1AbsvoeR//z/M9a/oDv7+YlrNVaPXH5XJ/hWj1eUfy+Fr9fMs/0wvn5Fd54I+8rccoxgjnepjhAAEIAABCEBgHwGagAX2Oy7Bvtyn5/csmB8jYJd0/3S9vQ8X/S417CAAAQhAAAKfR4AmYOFMdl/CF0q/xPXp+78EIkEgAAEIQAACEIDABgJLTcCGekkJAQhAAAIQgAAEIAABCCwSoAlYBIg7BCAAAQhAAAIQgAAE7kaAJuBuJ+bq5eM4DgZTCEAAAhCAAAQgAIE2gaUmYPcllPx7fzpQ+y3DEAIQgAAEIAABCEDgowjQBCwcxxObEP10mAVsuEIAAhCAAAQgAAEIbCZAE7BwALubgIXSl1358ZDLCAkAAQhAAAIQgAAEthFYagK2VU3i7QRoArYfAQVAAAIQgAAEIACB0wRoAk6je7YjTcCzz5/dQwACEIAABCBwbwI0ATc+v50fR6IJuPGLQ+kQgAAEIAABCDyewFITsPMSaidH/n0/HYgm4PG/dwAAAhCAAAQgAIEbE6AJWDi8pzch1gjQDCy8QLhCAAIQgAAEIACBTQRoAhbA724CFkpfduXyv4yQABCAAAQgAAEIQGAbgaUmYFvVJN5OgCZg+xFQAAQgAAEIQAACEDhNgCbgNLpnO9IEPPv82T0EIAABCEAAAvcmQBNw4/Pb+XEkmoAbvziUDgEIQAACEIDA4wksNQE7L6F2cuTnpwM9/lcwACAAAQhAAAIQgMAJAjQBJ6DJ5clNCH8ToLeAEQIQgAAEIAABCNyPAE3AwpntbgIWSj/tapd/GoDT+HCEAAQgAAEIQAACH0FgqQn4iB1QBAQgAAEIQAACEIAABCBwiABNwCFcGEMAAhCAAAQgAAEIQOD+BMom4Ovr64ee+2/ze+7giR9H+p4nya4gAAEIQAACEIDAewmUTUCnjN2X0Kfn75wRNhCAAAQgAAEIQAACEIgEaAIikQPr3U3IgVIxhQAEIAABCEAAAhCAwE8CNAE/URyf7GgC+Ok8x88JDwhAAAIQgAAEIACBPxNYagL+HIrVOwnwYzrfSZtcEIAABCAAAQhA4HsRoAm46XnSBNz04CgbAhCAAAQgAAEIfAABmoAPOIQzJdAEnKGGDwQgAAEIQAACEICAEVhqAnZ8Jt4f25Pz0wT4N4E5BCAAAQhAAAIQgMARAjQBR2gF251NCE1AOAyWEIAABCAAAQhAAAJtAjQBbVS/Gu5sAqwaawRoBn49FyQQgAAEIAABCEAAAmMCS03AODTaVxLg8v9KusSGAAQgAAEIQAAC35sATcBNz5cm4KYHR9kQgAAEIAABCEDgAwjQBHzAIZwpgSbgDDV8IAABCEAAAhCAAASMwFITsPsz8U/OTxPAL2AIQAACEIAABCAAgbMEaALOkvvx48fOJoQmYOHgcIUABCAAAQhAAAIPJ0ATsPAC0AQswMMVAhCAAAQgAAEIQGAbgaUmYFvVD05sfwPA3wI8+AVg6xCAAAQgAAEIQOACAjQBF0AkBAQgAAEIQAACEIAABO5EgCbgTqdFrRCAAAQgAAEIQAACELiAQNkEfH19/dBT5dn5mXir6en5q3NBDgEIQAACEIAABCAAgRGBsgkYOUn39Ev47v3rHBghAAEIQAACEIAABCBwhABNwBFawZYmIABheSsC//WXv7y03ivir8RY8X0pmJsEvzu/3fXvzn+T16wsc5Xfqn9ZGAoIfCMCS03AN+LAViDwbQlUP01q9Zuk+fsnAjwb3/v5ueL7nHEuGxsz36iP/n7tbc/O3/3TvK7MN+N3lslVfv6ssloz2Sh31z7m9WsffxbP+2VzH+vs/Mr3oVPDlflm/Gb1rPpn8W1/fEHgOxFI32j7twB8fTaBf/3P//6h51Mrtfqu/vr3f/v9Z8hq/tNgMvH+0XSki7Z+fcTviK3PcWRefdPyl44snv8G6ueZbSWr/HxuP1cc7+fn0ldjtI1r7zfSya5jI9tsrNhntlfLOrltf3qy/KP9y282ZnHfJRvVH2vQPqL8yDrmi2sfa6STXcdGttnYeQcyP8l+/+vfNT08dnLb/vRkCar9yycbfZzK39tUc+/r52bf2VsVFzkEPo0ATcCnnUijnni5jutGiLeYvKIuf3Gu5t3Nef/oM9JFW78+4nfE1ufozqtvVvqmFkcfVzqT+bnWJqsexYl+M3mmr2LI1o/RNq5Htl6n+chfNqOx4j/yuUo3yx33FtdWRyY7Ut+qf5XL4o4e+XXzezvFVYwjo49jfnHtY410suvYyDYbZ+9A5uNlr2wC4t7i2urIZCO5r/2IXfSLvlkdq2yznMggsIPAUhOw+zPxT8xfXawr+Y6XSjlfUZO/OFdz5V8Zfewjcc76HcnRtc2+UflvaNXc4o90Mb+39bqjcvl6Pz+XPhszO5P5x/tl9l5v845N9PHrjL/Xv3I+yl3tK8rj+mi9q/7dfFWeSq64pq9sRjr5+zGLoxgaZ/Zeb/MsZrQZrUfvwMjvCt0od7WvKI9r1VXJpdfYtZO9H72vn8tmtL8jNrJlhMAuAjQBC+R3NCHVxbqSL2xv2fUVNflLdjVfLvzHjx8+9pF4Z/2O5OjYVt+k/Dc0P48xvc7Po52tK/1RuWJ7Pz+XPo6VTSWXv+lHj+zOjtUZnI13xG+Uu+IS5XF9JL/Zrvp381V5RvJM15XFujK/zv7Nb/TEPEfXo3fgaKyj9qPcXV5du6q2yr+y93Lv6+feZrRHs5vpfSzmENhFgCZggfwnNQFxG3YB1+N1uphLp3W0GenNdqaXjY/r5x1/b6+5LtnVaHZeZ3OtFUNjJpd9HOWj0eslszGL6fV+ntlKVsWX/0w/+gakb2oaFfPMqBgafYxMZvpKLl/T+0fyOMomyrWe5ZHdq8bsDOwjFnosr5+rDsk0Si57v9bcbP1Xllv6ikuUx7X8u+OqfyePcmj0PpnM6+P8jP3IZ6SLuV+xzt4BvVN6X7TO8svG6ySTn9bexuZZbtlUXKI8rmf+0mus/KVfHUd7XI2NPwTeRWCpCXhXkeT5J4Hs0v5P7T9m0cavdfn2PlHvdTb3+s5a/tGvkld2svejvySbPK4lk9z7xvnI5ojO2/p5zBfXma3Jovzo2vLMvkHZN8iVb5KZf4wX19p/Jc/00dbWemRfjdG3srtabuwr/v7SlM29THVF2Wwtv6qOikuUx7XiZmNmm8ky3zMyix3jz9aWR35HR9Xo/SSrxlhPZXe1vDp3y+PfnWquerzey6I8rmVb1VFxifK4VtxKLr1Gs/OP5FeN1a/xq+ITBwLvIEAT8A7KF+aYXZgrveQafUle5ufeRvNKn8m7Moud2SqnH3Uhrkazlc77ZfORXaWbySt9N3/m72V+7mNGeecblL5B+jiz+czH622efVVy2Xq9n0u/Mlq8M8+ZnNkZ+AtTNY+5vJ10kmmUXGOWW7qKaZTHtfyzMbPNZJnvEZnFHMX1+pHdkZxX2qq+o+OZGrJ3wL8v1Vy5vP6oLMutGNW5RHlcz/yl11j5S786jva4Ght/CLyLAE3Au0hflGd2Wa70kmv05USZraNM9kfkma1iZ6NyjEZddqvRfKUbxZnZVTFMXj2zmLGeLMdMVuWOfp1vUPomqTHW111X/kflyuf9/Fx6G6N8tva+75pnZ+AvVqO56fyT1ez9oz7LLZvIqpJXdrL3Y2abybzPVfMqTyW/Im+MPVtfkfNojOwd8O9MNVcerz8qy3IrRmRVybt28o9j5R/tzq5HezwbEz8IvJvAUhOw4zPxHtAT82cXa2MiuUbPaaYf+URdXCtPJu/KFKM7xgvvbF3FjX7ertJVcvnO9LKzMbOdyTK9j6l55xuU/ybp54rRHSvfM3Lz8X5+7uuJ8tna+75rnp2Bv1hlcy9TnZnMdJXcdFluxbOxwyvaeP84j7ZxHe2vXFe5KnmV+4h9tJ2tq5yvlGfvgH9nqrlq8vqjsiy3YtjY4RVt5F/JFVd6jfK7epztcaa/uh7iQeAMAZqAM9T+z2dHE5JdrK0cyTXGbUmu0eszWaWvbDN5V+ZzdebxIjxbVzGjn7erdJVcvjO97GzMbGeyTO9j+nn2Tch/Y6zmPkZn7uN4+5HcdPGRr/fzc+ltjL7RLq69r/yj7Op1xt9frLK5l6mekSzTmV+WW/E0eoaS+XHGcGR7xNfHOTOvclXyLIfZnrGXX/SN65hzpo/2Z9bZO+Dfl2quXF5/VJblVgyNFTuv19yP3i/Oo51fXznv7K9jc2VNxILAGQI0AWeo/Z/PjibAUsfL9ZF1tI3xZvpon61NZl9ZrEqe2Va/icaL8Gz9j2p+/W/08xZHdbLX6GNV88y2I+vYWM6Kny4gcazq9PL4TXe29r7dueoyez/3/lE+W3vfUdxot7LO+PuLVTb3MuWOstna/LLcitcdI9OR3xFbxTnrY37dR7lGo69DcUf2pvM+nXWMF/2j/op19g74d6eaK7fXH5VluRWjO64ymvnP9KM6O/vr2IxyoIPAOwgsNQHvKJAcOQG7NOvJLKSLl+u4Nt8o875Rp1zeRrI4Vr7KOYtR/SYaL8GzdaxL6+gnuUbT65FMo+QaK3nUy85G08WvIzLFznwUt2Jo3wD1yPbq8ew3We/n576+KPdrzTV6P81HOtmsjhl7f7EazU2nx+qQrcZYW5RnuaPPbJ0xMtmZJ8uVxc/szspm8bWP/9/e+dxocht9WEcloLMCcAAKxNhMfFcIhmMw5uwkFIAAAz764MN30NEJvB9q5d+otsAi2c3uZvfLZ4AGyfrH4sMeTdXuu6NS/JrO7GNsv9ZcYxa/JD9SVnoH/HuSzZWD12+VlfZWjN6xxq8nRsu/pc/26Dlbj00WHzkEriRAE3AlbfaCwAQC2Q+kvT8Ee49wRPwshsmzx+e3x9/H9bH2zI19xn9PvJbPkftl7Fo59OjPjK39sz10v7Krja0YiuVHH2+PfxbLx+2dH/k+9Ox55H4Zu548zGbUv7TPld/Lpf2RQeBoAjQBRxMlHgQgAAEIQAACEIAABG5OYKgJmPWZeDFdfX9xYIQABCAAAQhAAAIQgMAWAjQBW2gF29lNSEiHJQQgAAEIQAACEIAABLoIdDUBv/3231fpsSK4JL9Ktvr+V3HWPv/+zz9ftUd2jOXvF7jA5cnvQO1733T2eeknn4/c+f7kHeAdWO0dGGoCVoO1+nlbRcDqfDg/P0De+R1off/TBPD+v/P7z9l4v9/xHdjUBHT93QJGb0vgP//3r1fpsR/+JucLAhB4XwL2Pa7v9ey/A+97ek4GAQhA4P0I0AQ8+E7/+v0vLz1XHCP7wS95zOG74tsVrcrrEV9FLP2ea+nOHq1Y0nPWXjPPd9aZfNw95zPmd/jK8sjkZ+S8h18tD32f2xk09+OVZ6vliQ4CEIAABPoIdP3E1F+BxJCz/2Hsyvtb8X/1l/+Bb/NYDMR8RuqxEV/lcXQRpLitMRZDcd3y79XPOl9vfnvt7Fx6tsY4i/VReVyZ39Hvh//+t3P4tf57sJUT9hCAAAQgMI/Adx8fH6/WQxNQvqCZTcgTmoAytT7pEU1A307HWmVFXklekh2bTV80y+MuufiM9xSxdzlHlkcm9+fWfIutfLaMrfhR74t+0/k1TcAW8thCAAIQuAeBr01ALRVrEGgCyoRWbgJKRUCZ0j4pTcA+blu87A5jobfF/2xbmoCuv6jdfQ2tu4/6UtHvZdF+d2I4QgACEIDAJQSGmoBLMmSTbwjo3wDE8Ruj1+vz3wqU/sZAMh8j+pfW8Qe+X9s8fpUKecls1OP9JIujt+md7y0irZgpPT37ZoVQJu+JmdnsOZ/F0tmyuC257eufaK+8MpuWXvFkp3XP2MtZDKK91pnecvA6zZWb1nH0+hhDuqPHFj/LsfYV9fH73fReFu1rsdFBAAIQgMB8AjQB8+9gVwYq5EvOUVdaR1kpTpTFH/h+bfP4VaoxVNx728zO2+yZt4qgPTFbPlkhlMlb8Wr6PecbzaO0Z5TZOsr8OVp62dZiyCaOPeeLNn5tc7+2+H7t59q7V6ZY0T6uFXd0LPGzvbLH51eyid/vZuNltuYLAhCAAASeQ+CzCfjy5csrPnaM2seBnnPM98s0K+J75JlNi1L8ge/XNo9fpZpgRBbjt9alIqjlM6rPCqFMPrLf3vNZLkfmE/OI63jGll72vXayt7F1rkwvucYsZksvv5Jdll9mq1h7xxa/1r5RH7/fTe9l0X5v3vhBAAIQgMA1BD6bgGy7WhMw8zPxlu/K+2eFfI88s8neAcnjD3y/tnn8Gin4S74xfmvdKoJK/lbIZE/JPsqyQiiTR/8t6z3n8/F1Ti/rmdu+8fF+rbxaesXqtZO9jS3OOnNpzPx9TD/Xvr2ynviKecTY4lfK2+8b9fH73fReFu19LOYQgAAEIHA/AjQBA3cyswnJCvkeeWbTQhF/4Pu1zeNXqZAfkcX4rXWrCGr579FnhVBJXpJt2fOo81kevbmU9oyyuI5naull32snextb59ij9z5+rn17ZVl+Jf/MVnv2jC1+2b6KHfXx+930XhbtFYcRAhCAAATuSYAmYOBeVm4C7Id/LAIiypGCv+Qb47fWrSKo5b9HnxVCJXlJtmXPGecr7RllcR3P1NLLvtdO9ja2mO7RRx9bx8fnUMsjxtpqG/eprffwq8WLBb9f678HNX90EIAABCBwLwJfm4C9/5+Aex1lrWxqf5ofda11L7nSD30vi3FKhfyILMZvrY8uglr7SR8LvbjO7CTvHWecr7RnlMV1PE9LL/uWXYlrSaZ4Gks2kmmUrY0lWUuf+ZTkJVnPvj6H0rzFr+RTk/nvdcvZr22enaMWEx0EIAABCMwj0PXrHLL/T8C8tNk5FvaRiOn1lHRR1rOOP/T1g1/yGGO04Dd/PTF2z/roIqhnT9lYQaRHMj8eUTDNOp/t6x87l8/Fz/2ZNW/pe+1KDMU8joqpMdNnMb2f5hpLPqbze9RsS/4lmWL0jr2ce+Pp+9xy09yPR+Tcmwt2EIAABCAwTqDYBNjfDPgvmgBPY925/4Hv5yoK1iXDyVciYO+7f1Y5u33P63vdf/9rbjq+IAABCEDgOQSK/9XubQJmfibeEK++/9WvmX7YZ+PV+bAfBCBwHYHs+15ymoDr7oKdIAABCBxBYFMToL8R0GhFuOYzxtX3v5r5v//zz1ftuTof9vvv1O8/+K/Fv/a9bzprAngn1nonuG/um3fg2e8ATcBv+y9wdhNy9Tdfqwi4Oh/22//uwg52W98Bvv95Z7a+M9jzzvAO3Psd6GoCjvgrB2JAAAIQgAAEIAABCEAAAvcgQBNwj3sgCwhAAAIQgAAEIAABCFxGgCbgMtTnbGSfw+Uf5J3DlqgQgAAEIAABCEDgXQkMNQGr/3ae2een+H/Xb0vOBQEIQAACEIAABM4lQBMwwJcmYAAerhCAAAQgAAEIQAAC0wjQBAygpwkYgIcrBCAAAQhAAAIQgMA0AkNNwLSs2fgrAT4OxIsAAQhAAAIQgAAEILCHAE3AHmo38aEJuMlFkAYEIAABCEAAAhB4GAGagIddmKVrxT8NwAMvjpQhAAEIQAACEIDATQgMNQGzPxO/+v40Ajf5LiINCEAAAhCAAAQg8DACNAEDFza7CaEJGLg8XCEAAQhAAAIQgMDCBGgCBi6fJmAAHq4QgAAEIAABCEAAAtMIDDUB07Jm468E+JsAXgQIQAACEIAABCAAgT0EaAL2ULuJD03ATS6CNCAAAQhAAAIQgMDDCNAEPOzCfLo0AZ4GcwhAAAIQgAAEIACBXgJDTcDsz8Svvr9dsjUCNAO9rzt2EIAABCAAAQhAAAJGgCZg4D2Y3YQMpI4rBCAAAQhAAAIQgMDCBGgCBi6fJmAAHq4QgAAEIAABCEAAAtMIDDUB07JmYwhAAAIQgAAEIAABCEBgNwGagN3ocIQABCAAAQhAAAIQgMAzCdAEPPPeyBoCEIAABCAAAQhAAAK7CQw1AbM/E8/+v+6++Cc53vG3H+m3Mmns5Sl7jb1+d7GzvPmCAAQgAAEIQOD5BIo/0T8+PrpORhE+twifzf+v3/9SfU9Mr6dqWFHOLDp//OnnNLOevGr+FrgnRprAAYpWftkWs/PO8kIOAQhAAAIQgEA/gWIT0Os+uwhl/7lNSK0JqOl6369ZxaYVx3qyXHtyaxXZPTGy/Y+Qt/Kr7TE791pu6CAAAQhAAAIQaBP4zv7Uv/W0w2ABgW8JPLkJ0ElqRfIRRfARMZTr1eOTc7+aFftBAAIQgAAE7kjgaxNQS6z3o0G1GOjWIzDaBNyhyKQJqL+3d7ijeoZoIQABCEAAAhDICNAEZGSQNwmUCn2TlZ5msGBQKzCtOPdPcP2qM1lmo+I+0yue7LT2Yy0/2dX8zaYUw2TZI5+aPp5Ja+Xkx1J+kslPa++neSl/6RghAAEIQAACELg3gaEmgM/kz/1M/mz+pSZAr3tNJ5vamBWYpaI0ylTAZvFbevnFuJLbmOXnbWr+vTF8vJ653zObK47Xe1mUx7VsexjIlhECEIAABCAAgXsR+GwCvnz58oqPpVr7ONDsIpT95zYhtUK/puv5FthSYMYiNa7jfi297Gt2PfnV/G2PnhjKpXf0e2ZzxfL6rTKzPyN/5cEIAQhAAAIQgMC5BD6bgGwbmoCMzOu1ehNSK/RrupzoH5pagWnFa3z+8Pz9Y0B+Heel4jfa2LpmV8tPsWr+ZlOKYbLskU9N7/fM5rX8vE/NTrnIhhECEIAABCAAgWcRGGoCnnVUsj2aQK3Qr+l68igVyObXU6SWbPyeLb1sa3ZZfvLNcvX6nhjevmfuc87miuP1W2Vmf0b+yoMRAhCAAAQgAIFzCdAEnMv3raPXCv2arhdKqcjsKVxLNn7Pll62NbtSbvLTWPM3m54YitU7+j2zuWJ5/VbZGbkrB0YIQAACEIAABM4n8LUJ4P8TcD7od9yhVujXdL0sSoVmT+FasvF7tvSyrdmVcpOfxpq/2fTEUKze0e+ZzRXL67fKzshdOTBCAAIQgAAEIHA+Af6PwQOM+TcBv6T0jmgCLHip2LTi1T9m5wtaPy8l2NLLp2ZXykt+Gmv+ZtMTQ7F6R79nNlcsr98iOyNv7c8IAQhAAAIQgMA1BIpNQO0fA/u0Vi+CVz+/fxfOnN+x6LSc/NN7fu9zx3O1zvHEnFtnQg8BCEAAAhBYkQBNwMCt0wQMwMMVAhCAAAQgAAEIQGAagaEmYFrWbAwBCEAAAhCAAAQgAAEI7CZAE7AbHY4QgAAEIAABCEAAAhB4JgGagGfeG1lDAAIQgAAEIAABCEBgN4GhJmD1z8Svfv7dbx2OEIAABCAAAQhAAKEYxG4AABuQSURBVAJTCdAEDOCnCfj911zyG2MGXiJcIQABCEAAAhCAwAQCNAED0FdvAij+B14eXCEAAQhAAAIQgMBEAkNNwMS82foGBGgCbnAJpAABCEAAAhCAAAR2EKAJ2AENl98J0ATwJkAAAhCAAAQgAIFnEqAJeOa93SJrmoBbXANJQAACEIAABCAAgc0EhpqA1T8Tv/r5aQI2f7/hAAEIQAACEIAABG5BgCZg4BpWbQKs+KcBGHhxcIUABCAAAQhAAAKTCdAEDFzAqk2AkNEIiAQjBCAAAQhAAAIQeBaBoSbgWUcl26MJ0AQcTZR4EIAABCAAAQhA4BoCNAHXcH7LXWgC3vJaORQEIAABCEAAAgsQoAlY4JLPOiJNwFlkiQsBCEAAAhCAAATOJTDUBKz+mfjVz08TcO43J9EhAAEIQAACEIDAWQRoAgbI0gQUX58BorhCAAIQgAAEIAABCFxBoFjFfXx8dO29ehG8+vntJbG/DeBvBLq+XTCCAAQgAAEIQAACtyEw1ATc5hQkAgEIQAACEIAABCAAAQh0E6AJ6EaFIQQgAAEIQAACEIAABN6DAE3Ae9wjp4AABCAAAQhAAAIQgEA3gaEmYPXPxK9+/u63DEMIQAACEIAABCAAgVsRoAkYuA6agAF4uC5P4O8//HAqg7Pjt5KfvX8rv7vrj+B3RIy7cyI/CEAAAnsJ0ATsJfd6vVZvAmaff+DqcL2QQPbbo0YLNPP3TzzSaPwYT2u/Z5zLxsbW/tE3rn2svfOrf3tXz34ZlyiP614G3s/Pe/1H7LJ3fSQmvhCAAATOIjDUBJyVFHGfQWBmE/Cnv/3jpeeutCy/o7/+8ucfP0Nm80+DxsT7R9OaLtrW1llRZMWZnpK/L978vGSbybb6bbWP+0b/uPb2NZ3semxkWxoz9rL98aefNd011uLXdNm5ojyuLUmT1R7Z6EClGNKNjD6un1vM2tlH9sQXAhCAwNEEaAKOJrpQvFlNQCyu4/ouV3BGXr44z+a95/f+0aemi7bZOiuGVDTF0ceRzmR+rrXJskdxop/k2bjVPsaJ/nHt7Ws62fXYyLY0Zvxlu7cJsLh6FCuOtb2zc0V5XPs9vM7Pzcav/dz7j859XD9X3Nr5ZcMIAQhAYDYBmoDZN8D+mwhkhXUm3xT8YOMzcvLFeTY/4hg+9t54pULIF0zZ3Par6WI+3tbrMrm38fOt9i1fi+eflr3X23wkH/Mv8Y971NYt/5q+pvNMWvMsP8/Gz83er/08i7VH7uP6uWLVzr/FRraMEIAABM4gMNQEzPqTYIFg/1+FYpkxK6wz+UwwZ+Tki/NsfsSZfew98bIiyBdMfh738Do/j3a2zvSZvBZji4/iZD6Z3PuZTfbIbu+Y3UFvvJZ/TV/TZVyiPK593l7n52bj137u/UfnPq6f+7g1BmbX0vtYzCEAAQicQYAmYIDq6k3IALrdrr2Ftdnp8ZvJXzqto01Nb7YtvWx8XD/v8ff2mqs4z0az8zqba60YGkty2cdRPhq9XjI/1gocFU0avd/WuWJo9P4lmddrHu3iWnZxNLuabU0XY52xrt2B7df6OFDLv6av6TIuUR7XnpHX+bnZ2No/3u/KeY3BlXmwFwQgAIGMAE1ARqZDvnoTMOP8paI9XlW08WsV394n6r3O5l7fs5Z/9MvkmZ3s/ajCPRvNVgW69yvNFWNUV4rTKoBUpJX27pGV/E3mv+La62xeiiGbTCd5K7biK96Vo7Fv8bd8Sk2AfEtjPENrD8WIfhm7KI9rH8fr/Nxs/NrPvf8V8xafK3JgDwhAAAI1AkNNQC0wuvcncMcmICuoJdfob8fL/NzbaJ7pS/JemcUu2WpPP6rgzkazlc77leY1u0zXK+8pgKxA21qktXy8PovtbUpcvGyLrffL5oq3dczi1eStOyg1AT5ey7+mr+lqZ/f7m13pS/I4ylZyW/u59FeNNQZX5cA+EIAABGoEaAJqdNBVCbxjE2AHtoI8K8q3yEu2il0aq7D/p1QRno1mJl0rXs0u05k8e/x+PQWQCjSN3n/LPPPP5FnsLfbRtrXO9jxT3rqDWU1A75kjU/l5ueYazSaby/+qscX/qjzYBwIQgEBGgCYgI4P8lgRKhbUlKrnGmLzkGr2+JFPMqItrxSnJe2WK0TvGAr21zuJGP2+X6TK597V5TwF0VLHm4/g8Mrm38fMt9tG2tfb7XDVv3cETm4AaZ+k0Gmc/v4q79mnxb+kVhxECEIDAWQSGmoAZfxLsQbA/vx1I74MKbo2Sa5Rco+Q2lmSZPrMtyXtlfq+eeSzEW+ssZvTzdpkuk3tfzUtFji/Ksrn8e0cfx/tkcm/j51vszTY+W2Jt2cvH3TIv8ff+rSbA25bmtfg1ncU64vxZDC/389IZzpK1zm/79ticlR9xIQABCBgBmoCB92D1JmQA3ZBrLK63rKOtJeJlfq4ko6y1zvxq8hjTbLMiIRbirbX2jWP08/qtupJ9lr8Kszj6/bO5+Wx5sjglufIp6aIs2rbWLf+oP2Kd8VfspzcBOkcc/V34ec0u6kbXLfYWv8dmNA/8IQABCNQI0ATU6DR0qzcBM89vRbOe0jVJF4vruDbfKPO+Uae9vI1kccx8tWcrRlYkxIK7tY55aR39JNdoej2SaZRco+RxzM5gxZme6HPUulQAas+tY8wpxvZrzTVGX1vXdCX7PbKMvWLRBJT/4bH47B1b3C1uj83e/fGDAAQg0EtgqAno3QS79yQwswl4T6Lveaqs4Dm7ED4zvsXOHn+LWQ6Zb5T7WHvmxj7jvydey6d3v3jObN3ar6W3uKWvTF6y3SK7kvWWvLCFAAQgUCJAE1CigqyLAE1AFyaMIAABCEAAAhCAwO0I0ATc7kpICAIQgAAEIAABCEAAAucSGGoCZv9JMPuv99uBzv12IDoEIAABCEAAAhBYgwBNwMA9r96EDKDDFQIQgAAEIAABCEBgIgGagAH4NAED8HCFAAQgAAEIQAACEJhGYKgJmJY1G08j0PvbP6YlyMYQgAAEIAABCEAAAk0CNAFNRBiUCPCr8EpUkEEAAhCAAAQgAIFnEKAJeMY93S5LmoDbXQkJQQACEIAABCAAgW4CQ03A6p+JX/n8NAHd32MYQgACEIAABCAAgdsRoAkYuBKagAF4uEIAAhCAAAQgAAEITCNAEzCAniZgAB6uEIAABCAAAQhAAALTCAw1AdOyZuNbEOA3Bd3iGkgCAhCAAAQgAAEIbCZAE7AZGQ5GgH8TwHsAAQhAAAIQgAAEnkuAJuC5dzc1c5qAqfjZHAIQgAAEIAABCAwRGGoCVv5MvFFf+fw0AUPfdzhDAAIQgAAEIACBqQRoAgbw0wQMwMMVAhCAAAQgAAEIQGAaAZqAAfQ0AQPwcIUABCAAAQhAAAIQmEZgqAmYljUbTyfAx4GmXwEJQAACEIAABCAAgd0EaAJ2o1vT0Yp/GoA1755TQwACEIAABCDwPgRoAt7nLjkJBCAAAQhAAAIQgAAEuggMNQErfybe6K5+/q43DCMIQAACEIAABCAAgdsRSJuAj4+Pl54s69WL4NXPn70XyCEAAQhAAAIQgAAE7k0gbQJ60l69CF79/D3vCDYQgAAEIAABCEAAAvcjMNQE3O84ZAQBCEAAAhCAAAQgAAEItAjQBLQIoYcABCAAAQhAAAIQgMCbEaAJeLML5TgQgAAEIAABCEAAAhBoERhqAlb/TPzq52+9XOghAAEIQAACEIAABO5JgCZg4F5oAgbg4QoBCEAAAhCAAAQgMI0ATcAAepqAAXi4QgACEIAABCAAAQhMIzDUBEzLmo0hAAEIQAACEIAABCAAgd0EaAJ2o8MRAhCAAAQgAAEIQAACzyRAE/DMeyNrCEAAAhCAAAQgAAEI7CYw1ASs/pn41c+/+63DEQIQgAAEIAABCEBgKgGagAH8NAED8HCFAAQgAAEIQAACEJhGgCZgAD1NwAA8XCEAAQhAAAIQgAAEphEYagKmZc3GEIAABCAAAQhAAAIQgMBuAjQBu9HhCAEIQAACEIAABCAAgWcSoAl45r2RNQQgAAEIQAACEIAABHYTGGoCVv9M/Orn3/3W4QgBCEAAAhCAAAQgMJUATcAAfpqAAXi4QgACEIAABCAAAQhMI0ATMICeJmAAHq4QgAAEIAABCEAAAtMIDDUB07JmYwhAAAIQgAAEIAABCEBgNwGagN3ocIQABCAAAQhAAAIQgMAzCdAEPPPelsr6u++Kr+lUBpaTf3qT8T53PFfvOfbarXjmvazwgwAEIAABCJxJoFhdfXx8dO25+mfiVz//X7//pfqemF5P1bCinFk0/vjTz2lmPXnV/C1wT4w0gQcrVj33g6+M1CEAAQhA4A0JFJuA3nOuXgSvfv5aE1DT9b5fs4pFK971ZLn25EYTkNFbtwHKiaCBAAQgAAEIXEvgO/tT/9aTpbR6Ebz6+bP3wuRPbgJ0rloR39MEKE42HhEji313+cpnv/vdkB8EIAABCKxB4GsTUDtq70eDajHQrUdgtAm4Q5FIE3Due3uHOz73hESHAAQgAAEI3JcATcB97+b2mZUKfZOVnq2HqRWI+qiOxhhbxbv0WstO60wf7bT2Yy0/2WkfrePYE6PkY36lx2xLcslirNI6MtHa20qmMer8WnOzjV+WF18QgAAEIAABCMwhQBMwh/tb7FpqAnSwmk42tTErEEvFZJSVilO/V0sv2xhXchuz/LxNzb83ho93xdznXJp7mfKJstZafj0MZcsIAQhAAAIQgMCxBD6bgC9fvrziY1vVPg60+mfiVz9/rdCv6Xpe4S0FYm/RqX2jveRxrNn15Ffzt716YsSczl77nLN5zMHbSSeZRsn9eMfz+/yYQwACEIAABN6ZwGcTkB2SJiAj83rRBOS/IvTMJsAKy/j4W6oVnmbX0itWza6ngK352x49MZSLRvPJHsWs6RUnG33Otbnp/FOK5/1L+j3nL8VBBgEIQAACEIDAdgI0AduZfXrQBFzfBJQKyyiL688L+9+kpZd9za6ngK352x49MZTLVaPPuTT3MuVUkpkuk8vvjudXbowQgAAEIACBdycw1AS8OxzOVydQ+9P+mq4e9Q9tqUgsFZZRFtd/RPx91tLLvmZXyk1+Gmv+ZtMTQ7GuGn3OpbmXKaearKS769l1HkYIQAACEIDACgS+NgF7/z8BKwDijDmBWqFf0+URv9WUiuRSURllcf1t1PafUMu+FqeUm/w01vzNpieGYl01+pxLcy9TTlHWWt/17DoPIwQgAAEIQGAFAvyOvhVu+aQz1gr9mm5LOqVC2YpM/1g8X3j6eWmvll4+NbtSXvLTWPM3m54YinXV6HOuzU2nx3KTrcaYr5ff8dwxX9YQgAAEIACBdydQbAJq/xjYA1n9M/Grn9+/C2fO71g0Wk7+6T2/97njuXrPsdduxTPvZYUfBCAAAQhA4EwCNAEDdGkCBuDhCgEIQAACEIAABCAwjQBNwAB6moABeLhCAAIQgAAEIAABCEwjMNQETMuajSEAAQhAAAIQgAAEIACB3QRoAnajwxECEIAABCAAAQhAAALPJEAT8Mx7I2sIQAACEIAABCAAAQjsJjDUBKz+mfjVz29vnX7bze43EEcIQAACEIAABCAAgcsJ0AQMIF+9CeDXPQ68PLhCAAIQgAAEIACBiQRoAgbg0wQUX58BorhCAAIQgAAEIAABCFxBoFjF9f7Pwq5IkD3uS4C/Cbjv3ZAZBCAAAQhAAAIQqBGgCajRQVclQBNQxYMSAhCAAAQgAAEI3JYATcBtr+b+idEE3P+OyBACEIAABCAAAQiUCAw1Aat/Jn7V81vxTwNQ+nZCBgEIQAACEIAABJ5BgCZg4J5WbQKEjEZAJBghAAEIQAACEIDAswjQBAzcF01A8fUZIIorBCAAAQhAAAIQgMAVBIpVHL8d6Ar0z9+Dvwl4/h1yAghAAAIQgAAE1iRAE7DmvR9yapqAQzASBAIQgAAEIAABCFxOgCbgcuTvsyFNwPvcJSeBAAQgAAEIQGAtAkNNwOqfiV/9/DQBa/3HgtNCAAIQgAAEIPA+BGgCBu5y9SbA0FkjQDMw8BLhCgEIQAACEIAABCYQoAkYgE4TMAAPVwhAAAIQgAAEIACBaQSGmoBpWbMxBCAAAQhAAAIQgAAEILCbAE3AbnQ4QgACEIAABCAAAQhA4JkEaAKeeW9kDQEIQAACEIAABCAAgd0EhpqA1T8Tv/r5d791OELg9Xr9/YcfTuVwRPyRGCO+p4JZJPgR/I+IsQhujgkBCDyQAE3AwKWt3gTMPv/A1eF6IYHst0eNFljm7594pL3xvZ+fK77fM85lY2PJN+qjv197273zp/32rp58M65RHte9DL2fn/f4Z+96jy82EIAABK4mQBMwQHx2Ebzy/n/62z9eegau8FRXy+/or7/8+cfPkNn806Ax8f7RtKaLtrV1VhRZcaWn5O+LLz8v2WayzE/7xlFxvJ+fS5+N0TauvV9NJ7seG9mWxoy9bH/86WdNp4y1/Gq6jEuUx7Ud0mS1RzYCUorRsqnlrriMEIAABO5AYKgJuMMByGEegVlNSCyu43oekW93PiMvX5xn82+zyFfeP1rVdNE2W2fFkAqrOPo40pnMz7U2WfYoTvRryUv6LIZs/Rht47pm63Wa1/xlUxsz/vKZ1QRYXnqUSxxruWdcojyu/R5e5+dm49d+3utvdrX8fRzmEIAABGYSoAmYSZ+9NxPICutMvnmDAx3OyMkX59n8iCP42HvjlQohX1Rlc9uvpov5eFuv2yqXr/fzc+lLY8nOZP7xfiV7r7d5j0308esSf68fnY/Gr/nXdJ5pa56d0bP1c7P3az/3sbzcz2VTy3+LjWwZIQABCJxBgCbgDKrEPI1AVlhn8tMS6Qh8Rk6+OM/mHak1TXzspnHBICuCfMHk5zGE1/l5tLN1pt8qV2zv5+fSxzGzyeTyN33tkd3eMbuDvfGi32j8mn9Nl3GN8rj2+Xudn5uNX/t5r7/samcwm5ZecRghAAEInEVgqAmY9XEQwWD/X4VimbG3sDY7PR6O/KXTOtrU9Gbb0svGx/XzHn9vr7mK82w0O6+zudaKobEkl30c5aPR6yXzY63AUWGl0fttnSuGRu9fkpk+k8vX9P6RPI6yiXKtW/vI7qyxdge25+jHgVrxW+eq+dd0Gdcoj2ufj9f5udnY2j/eb8u8doYtcbCFAAQgcBYBmoABsjQh1zchpaI9XmG08WsV394n6r3O5l7fs5Z/9MvkmZ3s/ajCPRvNVgW69yvNFWNUV4rTKoBUZJX27pGV/E3mv+Jaukxe0kdbW+uRfTZG38zuaLmxb/G3Pfc0AYpdGreeo5Wj9ohxM65RHtc+jtf5udn4tZ97/55563w9MbCBAAQgcCYBmoABujQB92sCsoJaco3+2r3Mz72N5pm+JO+VWeySrfb0owrubDRb6bxfaV6zy3S98p4CyAqsrUVWy8frs9iZXIy83s+lHxkt3p5nz56tO9jTBPg8WvG9bWle86/pavz8PtndSR5H+Upuaz+XvnesnaE3BnYQgAAEziQw1AScmRix709gRhPUKpYzveQaPd0os3WUyX6LvGSr2KVRe9RGFeHZaL7S1eK07LIYJs8ev19PAaQCS6P33zLP/LfKtaf383PpbYzy1tr7XjVv3cFTm4BefvFO5Oflmms0m2wu/96xxb83DnYQgAAEziJAE3AWWeKeQqBUWNtGkmuMm0uu0etLMsWMurhWnJK8V6YYvWMs0FvrLG7083aZLpN7X5v3FEBHFVs+js9jj9x8vJ+f12JHu7j2vlfNW3ewYhMQ78WvNddo9+TnW++txb+l37of9hCAAAS2EqAJ2EoM+6kESoW1JSS5xpik5Bq9viTL9JltSd4r83v1zGMh3lpnMaOft8t0mdz7al4qcnxRlc3l3zv6ON6nJjddfOTr/fxcehujb7SLa+8r/yg7el3i7/cYbQJ8rD3zWn41ne3V4tuTTxbDy/28J6ZsWvmbXY+N4jFCAAIQOIPAUBMw4+MgHgL7X/+ZfM9/1jwW11vW0dbO4GV+rvNFWWud+dXkMabZZkVCLMRba+0bx+jn9Vt1JfssfxVWcfT7Z3Pz2fJkcWpy5WU2fu59ory19r61uNFuZJ3xV8zVmwBxiKO/Sz+PdrV1i7359tjU9kAHAQhAYJQATcAAQZqQeU2IFc16SlcoXSyu49p8o8z7Rp328jaSxTHz1Z6tGFmREAvu1jrmpXX0k1yj6fVIplFyjZLHMTuDFVd6os9R670FnPfzc59XlPu15hq9n+Y1nWxGx4y94tIEiMS3o78bP//WKl+1uJtnj02+AxoIQAACxxCgCRjgSBMwrwkYuDZcLyaQFTx7CqwtqR8RP4th8uzxOe7x93F9rD1zY5/x3xPvbJ/efD2j2nw03+z+srhPYp2dATkEILAOgaEmYB1MnLREYHYTVMoJGQQgAAEIQAACEIBAmwBNQJsRFhCAAAQgAAEIQAACEHgrAjQBb3WdHAYCEIAABCAAAQhAAAJtAkNNwOyPg7A/n8lvv+JYQAACEIAABCAAAQhEAjQBkciG9epNyAZUmEIAAhCAAAQgAAEI3IgATcDAZazYBPT+9o4BrLhCAAIQgAAEIAABCJxMYKgJODk3wt+YAL8K78aXQ2oQgAAEIAABCECgQYAmoAEIdZkATUCZC1IIQAACEIAABCDwBAI0AU+4pRvmSBNww0shJQhAAAIQgAAEINBJYKgJWPEz8Z7ryuenCfBvAnMIQAACEIAABCDwLAI0AQP3RRMwAA9XCEAAAhCAAAQgAIFpBGgCBtCv3AQYNvvbAP5GYOAFwhUCEIAABCAAAQhMIjDUBEzKmW1vQIDi/waXQAoQgAAEIAABCEBgJwGagJ3gVnejCVj9DeD8EIAABCAAAQg8mQBNwJNvb2LuNAET4bM1BCAAAQhAAAIQGCQw1ASs/pn4lc9PEzD4nYc7BCAAAQhAAAIQmEiAJmAAPk3AADxcIQABCEAAAhCAAASmEaAJGEBPEzAAD1cIQAACEIAABCAAgWkEhpqAaVmz8TQC9jEgPgo0DT8bQwACEIAABCAAgUMI0AQcgpEgEIAABCAAAQhAAAIQeA4BmoDn3BWZQgACEIAABCAAAQhA4BACaRPw8fHx0pPttPJn4o3J6ufP3gvkEIAABCAAAQhAAAL3JpA2AT1pr14Er37+nncEGwhAAAIQgAAEIACB+xGgCRi4E5qAAXi4QgACEIAABCAAAQhMIzDUBEzLmo0hAAEIQAACEIAABCAAgd0EaAJ2o8MRAhCAAAQgAAEIQAACzyRAE/DMeyNrCEAAAhCAAAQgAAEI7CYw1ASs/pn41c+/+63DEQIQgAAEIAABCEBgKgGagAH8NAED8HCFAAQgAAEIQAACEJhG4P8BUcHIx5koPtYAAAAASUVORK5CYII=;" parent="WIyWlLk6GJQsqaUBKTNV-1" vertex="1">
          <mxGeometry x="1620" y="-908.5" width="769" height="817" as="geometry" />
        </mxCell>
        <mxCell id="-ZwUpcQ8FISl90wlWEQS-2" value="&lt;div&gt;1. 최대 최소 구하기&lt;/div&gt;&lt;div&gt;N개의 정수를 입력받고, 그 중에서 최댓값과 최솟값을 출력하시오.&lt;/div&gt;&lt;div&gt;예시: 3을 입력하면 숫자를 3개 입력받고 그 중에서 최대 최소를 출력하기&lt;/div&gt;" style="rounded=1;whiteSpace=wrap;html=1;fontSize=12;glass=0;strokeWidth=1;shadow=0;fillColor=#f5f5f5;strokeColor=#666666;fontColor=#333333;" parent="WIyWlLk6GJQsqaUBKTNV-1" vertex="1">
          <mxGeometry x="90" y="-1060" width="440" height="80" as="geometry" />
        </mxCell>
        <mxCell id="-ZwUpcQ8FISl90wlWEQS-3" value="문제 1" style="ellipse;whiteSpace=wrap;html=1;aspect=fixed;fillColor=#dae8fc;strokeColor=#6c8ebf;fontStyle=1" parent="WIyWlLk6GJQsqaUBKTNV-1" vertex="1">
          <mxGeometry x="280" y="-1110" width="60" height="60" as="geometry" />
        </mxCell>
        <mxCell id="-ZwUpcQ8FISl90wlWEQS-9" value="종료" style="rounded=1;whiteSpace=wrap;html=1;fontSize=12;glass=0;strokeWidth=1;shadow=0;fillColor=#f5f5f5;strokeColor=#666666;fontColor=#333333;" parent="WIyWlLk6GJQsqaUBKTNV-1" vertex="1">
          <mxGeometry x="330" y="-562.5" width="80" height="45" as="geometry" />
        </mxCell>
        <mxCell id="-ZwUpcQ8FISl90wlWEQS-12" value="no" style="text;html=1;align=center;verticalAlign=middle;resizable=0;points=[];autosize=1;" parent="WIyWlLk6GJQsqaUBKTNV-1" vertex="1">
          <mxGeometry x="290" y="-565" width="30" height="20" as="geometry" />
        </mxCell>
        <mxCell id="-ZwUpcQ8FISl90wlWEQS-14" value="Yes" style="text;html=1;align=center;verticalAlign=middle;resizable=0;points=[];autosize=1;" parent="WIyWlLk6GJQsqaUBKTNV-1" vertex="1">
          <mxGeometry x="190" y="-465" width="40" height="20" as="geometry" />
        </mxCell>
        <mxCell id="-ZwUpcQ8FISl90wlWEQS-16" value="" style="rounded=0;html=1;jettySize=auto;orthogonalLoop=1;fontSize=11;endArrow=block;endFill=0;endSize=8;strokeWidth=1;shadow=0;labelBackgroundColor=none;edgeStyle=orthogonalEdgeStyle;" parent="WIyWlLk6GJQsqaUBKTNV-1" source="-ZwUpcQ8FISl90wlWEQS-17" target="-ZwUpcQ8FISl90wlWEQS-19" edge="1">
          <mxGeometry relative="1" as="geometry" />
        </mxCell>
        <mxCell id="-ZwUpcQ8FISl90wlWEQS-17" value="시작" style="rounded=1;whiteSpace=wrap;html=1;fontSize=12;glass=0;strokeWidth=1;shadow=0;fillColor=#d5e8d4;strokeColor=#82b366;" parent="WIyWlLk6GJQsqaUBKTNV-1" vertex="1">
          <mxGeometry x="632.94" y="-830" width="120" height="40" as="geometry" />
        </mxCell>
        <mxCell id="-ZwUpcQ8FISl90wlWEQS-18" value="Yes" style="rounded=0;html=1;jettySize=auto;orthogonalLoop=1;fontSize=11;endArrow=block;endFill=0;endSize=8;strokeWidth=1;shadow=0;labelBackgroundColor=none;edgeStyle=orthogonalEdgeStyle;" parent="WIyWlLk6GJQsqaUBKTNV-1" source="-ZwUpcQ8FISl90wlWEQS-19" target="-ZwUpcQ8FISl90wlWEQS-22" edge="1">
          <mxGeometry y="20" relative="1" as="geometry">
            <mxPoint as="offset" />
          </mxGeometry>
        </mxCell>
        <mxCell id="-ZwUpcQ8FISl90wlWEQS-19" value="int i = 0;" style="rounded=1;whiteSpace=wrap;html=1;fontSize=12;glass=0;strokeWidth=1;shadow=0;" parent="WIyWlLk6GJQsqaUBKTNV-1" vertex="1">
          <mxGeometry x="625.94" y="-750" width="134" height="40" as="geometry" />
        </mxCell>
        <mxCell id="-ZwUpcQ8FISl90wlWEQS-20" value="" style="edgeStyle=orthogonalEdgeStyle;rounded=0;orthogonalLoop=1;jettySize=auto;html=1;endArrow=block;endFill=0;" parent="WIyWlLk6GJQsqaUBKTNV-1" source="-ZwUpcQ8FISl90wlWEQS-22" target="-ZwUpcQ8FISl90wlWEQS-24" edge="1">
          <mxGeometry relative="1" as="geometry" />
        </mxCell>
        <mxCell id="-ZwUpcQ8FISl90wlWEQS-37" value="" style="edgeStyle=orthogonalEdgeStyle;rounded=0;orthogonalLoop=1;jettySize=auto;html=1;endArrow=block;endFill=0;entryX=0.5;entryY=0;entryDx=0;entryDy=0;" parent="WIyWlLk6GJQsqaUBKTNV-1" source="-ZwUpcQ8FISl90wlWEQS-22" target="-ZwUpcQ8FISl90wlWEQS-49" edge="1">
          <mxGeometry relative="1" as="geometry">
            <mxPoint x="692.94" y="-450" as="targetPoint" />
          </mxGeometry>
        </mxCell>
        <mxCell id="-ZwUpcQ8FISl90wlWEQS-22" value="i &amp;lt; arr1.length" style="rhombus;whiteSpace=wrap;html=1;shadow=0;fontFamily=Helvetica;fontSize=12;align=center;strokeWidth=1;spacing=6;spacingTop=-4;" parent="WIyWlLk6GJQsqaUBKTNV-1" vertex="1">
          <mxGeometry x="622.94" y="-660" width="140" height="80" as="geometry" />
        </mxCell>
        <mxCell id="-ZwUpcQ8FISl90wlWEQS-24" value="종료" style="rounded=1;whiteSpace=wrap;html=1;fontSize=12;glass=0;strokeWidth=1;shadow=0;fillColor=#f5f5f5;strokeColor=#666666;fontColor=#333333;" parent="WIyWlLk6GJQsqaUBKTNV-1" vertex="1">
          <mxGeometry x="832.94" y="-642.5" width="80" height="45" as="geometry" />
        </mxCell>
        <mxCell id="-ZwUpcQ8FISl90wlWEQS-26" value="Yes" style="text;html=1;align=center;verticalAlign=middle;resizable=0;points=[];autosize=1;" parent="WIyWlLk6GJQsqaUBKTNV-1" vertex="1">
          <mxGeometry x="692.94" y="-560" width="40" height="20" as="geometry" />
        </mxCell>
        <mxCell id="-ZwUpcQ8FISl90wlWEQS-27" value="No" style="text;html=1;align=center;verticalAlign=middle;resizable=0;points=[];autosize=1;" parent="WIyWlLk6GJQsqaUBKTNV-1" vertex="1">
          <mxGeometry x="794.94" y="-642.5" width="30" height="20" as="geometry" />
        </mxCell>
        <mxCell id="-ZwUpcQ8FISl90wlWEQS-58" value="" style="edgeStyle=orthogonalEdgeStyle;rounded=0;orthogonalLoop=1;jettySize=auto;html=1;endArrow=block;endFill=0;" parent="WIyWlLk6GJQsqaUBKTNV-1" source="-ZwUpcQ8FISl90wlWEQS-39" target="-ZwUpcQ8FISl90wlWEQS-57" edge="1">
          <mxGeometry relative="1" as="geometry" />
        </mxCell>
        <mxCell id="nqlbBOmZ2KXXHhJfS6zj-1" value="" style="edgeStyle=orthogonalEdgeStyle;rounded=0;orthogonalLoop=1;jettySize=auto;html=1;" parent="WIyWlLk6GJQsqaUBKTNV-1" source="-ZwUpcQ8FISl90wlWEQS-39" target="nqlbBOmZ2KXXHhJfS6zj-0" edge="1">
          <mxGeometry relative="1" as="geometry">
            <Array as="points">
              <mxPoint x="692.94" y="-310" />
              <mxPoint x="692.94" y="-310" />
            </Array>
          </mxGeometry>
        </mxCell>
        <mxCell id="nqlbBOmZ2KXXHhJfS6zj-2" value="Yes" style="edgeLabel;html=1;align=center;verticalAlign=middle;resizable=0;points=[];" parent="nqlbBOmZ2KXXHhJfS6zj-1" vertex="1" connectable="0">
          <mxGeometry x="0.2815" relative="1" as="geometry">
            <mxPoint y="-14" as="offset" />
          </mxGeometry>
        </mxCell>
        <mxCell id="-ZwUpcQ8FISl90wlWEQS-39" value="arr1[i] &amp;gt; max" style="rhombus;whiteSpace=wrap;html=1;shadow=0;fontFamily=Helvetica;fontSize=12;align=center;strokeWidth=1;spacing=6;spacingTop=-4;" parent="WIyWlLk6GJQsqaUBKTNV-1" vertex="1">
          <mxGeometry x="622.94" y="-430" width="140" height="80" as="geometry" />
        </mxCell>
        <mxCell id="-ZwUpcQ8FISl90wlWEQS-50" value="" style="edgeStyle=orthogonalEdgeStyle;rounded=0;orthogonalLoop=1;jettySize=auto;html=1;endArrow=block;endFill=0;" parent="WIyWlLk6GJQsqaUBKTNV-1" source="-ZwUpcQ8FISl90wlWEQS-49" target="-ZwUpcQ8FISl90wlWEQS-39" edge="1">
          <mxGeometry relative="1" as="geometry" />
        </mxCell>
        <mxCell id="-ZwUpcQ8FISl90wlWEQS-49" value="초기값 &lt;br&gt;int max = arr1[0]" style="rounded=1;whiteSpace=wrap;html=1;fontSize=12;glass=0;strokeWidth=1;shadow=0;" parent="WIyWlLk6GJQsqaUBKTNV-1" vertex="1">
          <mxGeometry x="622.94" y="-530" width="140" height="60" as="geometry" />
        </mxCell>
        <mxCell id="-ZwUpcQ8FISl90wlWEQS-62" value="" style="edgeStyle=orthogonalEdgeStyle;rounded=0;orthogonalLoop=1;jettySize=auto;html=1;endArrow=block;endFill=0;entryX=0;entryY=0.5;entryDx=0;entryDy=0;" parent="WIyWlLk6GJQsqaUBKTNV-1" source="-ZwUpcQ8FISl90wlWEQS-57" target="-ZwUpcQ8FISl90wlWEQS-39" edge="1">
          <mxGeometry relative="1" as="geometry">
            <mxPoint x="872.94" y="-324" as="targetPoint" />
            <Array as="points">
              <mxPoint x="869.94" y="-280" />
              <mxPoint x="559.94" y="-280" />
              <mxPoint x="559.94" y="-390" />
            </Array>
          </mxGeometry>
        </mxCell>
        <mxCell id="-ZwUpcQ8FISl90wlWEQS-59" value="No" style="text;html=1;align=center;verticalAlign=middle;resizable=0;points=[];autosize=1;" parent="WIyWlLk6GJQsqaUBKTNV-1" vertex="1">
          <mxGeometry x="769.94" y="-420" width="30" height="20" as="geometry" />
        </mxCell>
        <mxCell id="-ZwUpcQ8FISl90wlWEQS-63" value="Yes" style="text;html=1;align=center;verticalAlign=middle;resizable=0;points=[];autosize=1;" parent="WIyWlLk6GJQsqaUBKTNV-1" vertex="1">
          <mxGeometry x="879.94" y="-353" width="40" height="20" as="geometry" />
        </mxCell>
        <mxCell id="0xhL1e-CCnpR5SvlJR19-0" style="edgeStyle=orthogonalEdgeStyle;rounded=0;orthogonalLoop=1;jettySize=auto;html=1;entryX=0;entryY=0.5;entryDx=0;entryDy=0;" edge="1" parent="WIyWlLk6GJQsqaUBKTNV-1" source="nqlbBOmZ2KXXHhJfS6zj-0" target="-ZwUpcQ8FISl90wlWEQS-22">
          <mxGeometry relative="1" as="geometry">
            <Array as="points">
              <mxPoint x="500" y="-140" />
              <mxPoint x="500" y="-620" />
            </Array>
          </mxGeometry>
        </mxCell>
        <mxCell id="nqlbBOmZ2KXXHhJfS6zj-0" value="max = arr1[i]" style="whiteSpace=wrap;html=1;shadow=0;strokeWidth=1;spacing=6;spacingTop=-4;" parent="WIyWlLk6GJQsqaUBKTNV-1" vertex="1">
          <mxGeometry x="632.94" y="-170" width="120" height="60" as="geometry" />
        </mxCell>
        <mxCell id="-ZwUpcQ8FISl90wlWEQS-57" value="i++" style="whiteSpace=wrap;html=1;shadow=0;strokeWidth=1;spacing=6;spacingTop=-4;" parent="WIyWlLk6GJQsqaUBKTNV-1" vertex="1">
          <mxGeometry x="824.94" y="-410" width="86" height="40" as="geometry" />
        </mxCell>
        <mxCell id="nqlbBOmZ2KXXHhJfS6zj-9" value="" style="edgeStyle=orthogonalEdgeStyle;rounded=0;orthogonalLoop=1;jettySize=auto;html=1;endArrow=block;endFill=0;" parent="WIyWlLk6GJQsqaUBKTNV-1" source="-ZwUpcQ8FISl90wlWEQS-39" target="-ZwUpcQ8FISl90wlWEQS-57" edge="1">
          <mxGeometry relative="1" as="geometry">
            <mxPoint x="762.94" y="-390" as="sourcePoint" />
            <mxPoint x="1226.94" y="-250" as="targetPoint" />
          </mxGeometry>
        </mxCell>
        <mxCell id="nqlbBOmZ2KXXHhJfS6zj-33" value="" style="rounded=0;html=1;jettySize=auto;orthogonalLoop=1;fontSize=11;endArrow=block;endFill=0;endSize=8;strokeWidth=1;shadow=0;labelBackgroundColor=none;edgeStyle=orthogonalEdgeStyle;" parent="WIyWlLk6GJQsqaUBKTNV-1" source="nqlbBOmZ2KXXHhJfS6zj-34" target="nqlbBOmZ2KXXHhJfS6zj-36" edge="1">
          <mxGeometry relative="1" as="geometry" />
        </mxCell>
        <mxCell id="nqlbBOmZ2KXXHhJfS6zj-34" value="시작" style="rounded=1;whiteSpace=wrap;html=1;fontSize=12;glass=0;strokeWidth=1;shadow=0;fillColor=#d5e8d4;strokeColor=#82b366;" parent="WIyWlLk6GJQsqaUBKTNV-1" vertex="1">
          <mxGeometry x="1154.88" y="-830" width="120" height="40" as="geometry" />
        </mxCell>
        <mxCell id="nqlbBOmZ2KXXHhJfS6zj-35" value="Yes" style="rounded=0;html=1;jettySize=auto;orthogonalLoop=1;fontSize=11;endArrow=block;endFill=0;endSize=8;strokeWidth=1;shadow=0;labelBackgroundColor=none;edgeStyle=orthogonalEdgeStyle;" parent="WIyWlLk6GJQsqaUBKTNV-1" source="nqlbBOmZ2KXXHhJfS6zj-36" target="nqlbBOmZ2KXXHhJfS6zj-39" edge="1">
          <mxGeometry y="20" relative="1" as="geometry">
            <mxPoint as="offset" />
          </mxGeometry>
        </mxCell>
        <mxCell id="nqlbBOmZ2KXXHhJfS6zj-36" value="int i = 0;" style="rounded=1;whiteSpace=wrap;html=1;fontSize=12;glass=0;strokeWidth=1;shadow=0;" parent="WIyWlLk6GJQsqaUBKTNV-1" vertex="1">
          <mxGeometry x="1147.88" y="-750" width="134" height="40" as="geometry" />
        </mxCell>
        <mxCell id="nqlbBOmZ2KXXHhJfS6zj-37" value="" style="edgeStyle=orthogonalEdgeStyle;rounded=0;orthogonalLoop=1;jettySize=auto;html=1;endArrow=block;endFill=0;" parent="WIyWlLk6GJQsqaUBKTNV-1" source="nqlbBOmZ2KXXHhJfS6zj-39" target="nqlbBOmZ2KXXHhJfS6zj-40" edge="1">
          <mxGeometry relative="1" as="geometry" />
        </mxCell>
        <mxCell id="nqlbBOmZ2KXXHhJfS6zj-38" value="" style="edgeStyle=orthogonalEdgeStyle;rounded=0;orthogonalLoop=1;jettySize=auto;html=1;endArrow=block;endFill=0;entryX=0.5;entryY=0;entryDx=0;entryDy=0;" parent="WIyWlLk6GJQsqaUBKTNV-1" source="nqlbBOmZ2KXXHhJfS6zj-39" target="nqlbBOmZ2KXXHhJfS6zj-48" edge="1">
          <mxGeometry relative="1" as="geometry">
            <mxPoint x="1214.88" y="-450" as="targetPoint" />
          </mxGeometry>
        </mxCell>
        <mxCell id="nqlbBOmZ2KXXHhJfS6zj-39" value="i &amp;lt; arr1.length" style="rhombus;whiteSpace=wrap;html=1;shadow=0;fontFamily=Helvetica;fontSize=12;align=center;strokeWidth=1;spacing=6;spacingTop=-4;" parent="WIyWlLk6GJQsqaUBKTNV-1" vertex="1">
          <mxGeometry x="1144.88" y="-660" width="140" height="80" as="geometry" />
        </mxCell>
        <mxCell id="nqlbBOmZ2KXXHhJfS6zj-40" value="종료" style="rounded=1;whiteSpace=wrap;html=1;fontSize=12;glass=0;strokeWidth=1;shadow=0;fillColor=#f5f5f5;strokeColor=#666666;fontColor=#333333;" parent="WIyWlLk6GJQsqaUBKTNV-1" vertex="1">
          <mxGeometry x="1354.88" y="-642.5" width="80" height="45" as="geometry" />
        </mxCell>
        <mxCell id="nqlbBOmZ2KXXHhJfS6zj-41" value="Yes" style="text;html=1;align=center;verticalAlign=middle;resizable=0;points=[];autosize=1;" parent="WIyWlLk6GJQsqaUBKTNV-1" vertex="1">
          <mxGeometry x="1214.88" y="-560" width="40" height="20" as="geometry" />
        </mxCell>
        <mxCell id="nqlbBOmZ2KXXHhJfS6zj-42" value="No" style="text;html=1;align=center;verticalAlign=middle;resizable=0;points=[];autosize=1;" parent="WIyWlLk6GJQsqaUBKTNV-1" vertex="1">
          <mxGeometry x="1316.88" y="-642.5" width="30" height="20" as="geometry" />
        </mxCell>
        <mxCell id="nqlbBOmZ2KXXHhJfS6zj-43" value="" style="edgeStyle=orthogonalEdgeStyle;rounded=0;orthogonalLoop=1;jettySize=auto;html=1;endArrow=block;endFill=0;" parent="WIyWlLk6GJQsqaUBKTNV-1" source="nqlbBOmZ2KXXHhJfS6zj-46" target="nqlbBOmZ2KXXHhJfS6zj-53" edge="1">
          <mxGeometry relative="1" as="geometry" />
        </mxCell>
        <mxCell id="nqlbBOmZ2KXXHhJfS6zj-44" value="" style="edgeStyle=orthogonalEdgeStyle;rounded=0;orthogonalLoop=1;jettySize=auto;html=1;" parent="WIyWlLk6GJQsqaUBKTNV-1" source="nqlbBOmZ2KXXHhJfS6zj-46" target="nqlbBOmZ2KXXHhJfS6zj-52" edge="1">
          <mxGeometry relative="1" as="geometry">
            <Array as="points">
              <mxPoint x="1214.88" y="-310" />
              <mxPoint x="1214.88" y="-310" />
            </Array>
          </mxGeometry>
        </mxCell>
        <mxCell id="nqlbBOmZ2KXXHhJfS6zj-45" value="Yes" style="edgeLabel;html=1;align=center;verticalAlign=middle;resizable=0;points=[];" parent="nqlbBOmZ2KXXHhJfS6zj-44" vertex="1" connectable="0">
          <mxGeometry x="0.2815" relative="1" as="geometry">
            <mxPoint y="-14" as="offset" />
          </mxGeometry>
        </mxCell>
        <mxCell id="nqlbBOmZ2KXXHhJfS6zj-46" value="arr1[i] &amp;lt; min" style="rhombus;whiteSpace=wrap;html=1;shadow=0;fontFamily=Helvetica;fontSize=12;align=center;strokeWidth=1;spacing=6;spacingTop=-4;" parent="WIyWlLk6GJQsqaUBKTNV-1" vertex="1">
          <mxGeometry x="1144.88" y="-430" width="140" height="80" as="geometry" />
        </mxCell>
        <mxCell id="nqlbBOmZ2KXXHhJfS6zj-47" value="" style="edgeStyle=orthogonalEdgeStyle;rounded=0;orthogonalLoop=1;jettySize=auto;html=1;endArrow=block;endFill=0;" parent="WIyWlLk6GJQsqaUBKTNV-1" source="nqlbBOmZ2KXXHhJfS6zj-48" target="nqlbBOmZ2KXXHhJfS6zj-46" edge="1">
          <mxGeometry relative="1" as="geometry" />
        </mxCell>
        <mxCell id="nqlbBOmZ2KXXHhJfS6zj-48" value="초기값 &lt;br&gt;int min= arr1[0]" style="rounded=1;whiteSpace=wrap;html=1;fontSize=12;glass=0;strokeWidth=1;shadow=0;" parent="WIyWlLk6GJQsqaUBKTNV-1" vertex="1">
          <mxGeometry x="1144.88" y="-530" width="140" height="60" as="geometry" />
        </mxCell>
        <mxCell id="nqlbBOmZ2KXXHhJfS6zj-49" value="" style="edgeStyle=orthogonalEdgeStyle;rounded=0;orthogonalLoop=1;jettySize=auto;html=1;endArrow=block;endFill=0;entryX=0;entryY=0.5;entryDx=0;entryDy=0;" parent="WIyWlLk6GJQsqaUBKTNV-1" source="nqlbBOmZ2KXXHhJfS6zj-53" target="nqlbBOmZ2KXXHhJfS6zj-46" edge="1">
          <mxGeometry relative="1" as="geometry">
            <mxPoint x="1394.88" y="-324" as="targetPoint" />
            <Array as="points">
              <mxPoint x="1391.88" y="-280" />
              <mxPoint x="1081.88" y="-280" />
              <mxPoint x="1081.88" y="-390" />
            </Array>
          </mxGeometry>
        </mxCell>
        <mxCell id="nqlbBOmZ2KXXHhJfS6zj-50" value="No" style="text;html=1;align=center;verticalAlign=middle;resizable=0;points=[];autosize=1;" parent="WIyWlLk6GJQsqaUBKTNV-1" vertex="1">
          <mxGeometry x="1291.88" y="-420" width="30" height="20" as="geometry" />
        </mxCell>
        <mxCell id="nqlbBOmZ2KXXHhJfS6zj-51" value="Yes" style="text;html=1;align=center;verticalAlign=middle;resizable=0;points=[];autosize=1;" parent="WIyWlLk6GJQsqaUBKTNV-1" vertex="1">
          <mxGeometry x="1401.88" y="-353" width="40" height="20" as="geometry" />
        </mxCell>
        <mxCell id="0xhL1e-CCnpR5SvlJR19-1" style="edgeStyle=orthogonalEdgeStyle;rounded=0;orthogonalLoop=1;jettySize=auto;html=1;entryX=0;entryY=0.5;entryDx=0;entryDy=0;" edge="1" parent="WIyWlLk6GJQsqaUBKTNV-1" source="nqlbBOmZ2KXXHhJfS6zj-52" target="nqlbBOmZ2KXXHhJfS6zj-39">
          <mxGeometry relative="1" as="geometry">
            <Array as="points">
              <mxPoint x="1020" y="-140" />
              <mxPoint x="1020" y="-620" />
            </Array>
          </mxGeometry>
        </mxCell>
        <mxCell id="nqlbBOmZ2KXXHhJfS6zj-52" value="min = arr1[i]" style="whiteSpace=wrap;html=1;shadow=0;strokeWidth=1;spacing=6;spacingTop=-4;" parent="WIyWlLk6GJQsqaUBKTNV-1" vertex="1">
          <mxGeometry x="1154.88" y="-170" width="120" height="60" as="geometry" />
        </mxCell>
        <mxCell id="nqlbBOmZ2KXXHhJfS6zj-53" value="i++" style="whiteSpace=wrap;html=1;shadow=0;strokeWidth=1;spacing=6;spacingTop=-4;" parent="WIyWlLk6GJQsqaUBKTNV-1" vertex="1">
          <mxGeometry x="1346.88" y="-410" width="86" height="40" as="geometry" />
        </mxCell>
        <mxCell id="nqlbBOmZ2KXXHhJfS6zj-54" value="" style="edgeStyle=orthogonalEdgeStyle;rounded=0;orthogonalLoop=1;jettySize=auto;html=1;endArrow=block;endFill=0;" parent="WIyWlLk6GJQsqaUBKTNV-1" source="nqlbBOmZ2KXXHhJfS6zj-46" target="nqlbBOmZ2KXXHhJfS6zj-53" edge="1">
          <mxGeometry relative="1" as="geometry">
            <mxPoint x="1284.88" y="-390" as="sourcePoint" />
            <mxPoint x="1748.88" y="-250" as="targetPoint" />
          </mxGeometry>
        </mxCell>
        <mxCell id="nqlbBOmZ2KXXHhJfS6zj-56" value="num(입력받은 값)으로&amp;nbsp;&lt;br&gt;배열의 크기 지정" style="rounded=1;whiteSpace=wrap;html=1;fontSize=12;glass=0;strokeWidth=1;shadow=0;fillColor=#d5e8d4;strokeColor=#82b366;" parent="WIyWlLk6GJQsqaUBKTNV-1" vertex="1">
          <mxGeometry x="60" y="-890" width="260" height="40" as="geometry" />
        </mxCell>
        <mxCell id="nqlbBOmZ2KXXHhJfS6zj-57" value="배열 값 중 최대값 찾기" style="rounded=1;whiteSpace=wrap;html=1;fontSize=12;glass=0;strokeWidth=1;shadow=0;fillColor=#d5e8d4;strokeColor=#82b366;" parent="WIyWlLk6GJQsqaUBKTNV-1" vertex="1">
          <mxGeometry x="560" y="-890" width="260" height="40" as="geometry" />
        </mxCell>
        <mxCell id="nqlbBOmZ2KXXHhJfS6zj-58" value="배열 값 중 최소값 찾기" style="rounded=1;whiteSpace=wrap;html=1;fontSize=12;glass=0;strokeWidth=1;shadow=0;fillColor=#d5e8d4;strokeColor=#82b366;" parent="WIyWlLk6GJQsqaUBKTNV-1" vertex="1">
          <mxGeometry x="1080" y="-890" width="260" height="40" as="geometry" />
        </mxCell>
      </root>
    </mxGraphModel>
  </diagram>
</mxfile>
